<svg width="17" height="11" viewBox="0 0 17 11" fill="none" xmlns="http://www.w3.org/2000/svg">
<path fill-rule="evenodd" clip-rule="evenodd" d="M0.1875 5.50002C0.1875 5.34255 0.250056 5.19152 0.361405 5.08017C0.472755 4.96882 0.623778 4.90627 0.78125 4.90627H14.7854L11.0484 1.17039C10.9369 1.0589 10.8743 0.907689 10.8743 0.750018C10.8743 0.592346 10.9369 0.441133 11.0484 0.329642C11.1599 0.218152 11.3111 0.155518 11.4688 0.155518C11.6264 0.155518 11.7776 0.218152 11.8891 0.329642L16.6391 5.07964C16.6944 5.1348 16.7383 5.20032 16.7682 5.27245C16.7982 5.34459 16.8136 5.42192 16.8136 5.50002C16.8136 5.57812 16.7982 5.65545 16.7682 5.72758C16.7383 5.79972 16.6944 5.86524 16.6391 5.92039L11.8891 10.6704C11.7776 10.7819 11.6264 10.8445 11.4688 10.8445C11.3111 10.8445 11.1599 10.7819 11.0484 10.6704C10.9369 10.5589 10.8743 10.4077 10.8743 10.25C10.8743 10.0923 10.9369 9.94113 11.0484 9.82964L14.7854 6.09377H0.78125C0.623778 6.09377 0.472755 6.03121 0.361405 5.91986C0.250056 5.80851 0.1875 5.65749 0.1875 5.50002Z" fill="white"/>
</svg>
