<svg width="35" height="39" viewBox="0 0 35 39" fill="none" xmlns="http://www.w3.org/2000/svg">
<path d="M35 17.3242C35 13.545 32.1697 10.409 28.5003 9.89145C27.9575 4.34743 23.2312 0 17.5 0C11.7691 0 7.0431 4.34751 6.49983 9.89138C2.83033 10.409 0 13.545 0 17.3242C0 20.1526 1.58578 22.6202 3.92178 23.9001C3.867 24.418 3.83896 24.9379 3.83896 25.454C3.83896 26.4569 3.94075 27.4611 4.14156 28.4384C4.25095 28.9706 4.72292 29.3529 5.27065 29.3529H7.35444C7.41475 29.5069 7.47858 29.6593 7.54595 29.8104L6.0721 31.2718C5.6847 31.6559 5.62355 32.2573 5.92599 32.7103C6.48139 33.5426 7.12545 34.3239 7.84017 35.0326C8.55567 35.742 9.34368 36.3806 10.1824 36.9307C10.6389 37.2302 11.2454 37.1697 11.6328 36.7856L13.1066 35.3242C13.2589 35.3911 13.4128 35.4544 13.5682 35.5142V37.5804C13.5682 38.1235 13.9538 38.5915 14.4904 38.7C15.4758 38.899 16.4884 39 17.5002 39C18.5119 39 19.5245 38.8991 20.51 38.7C21.0468 38.5915 21.4323 38.1235 21.4323 37.5804L21.4323 35.5142C21.5876 35.4544 21.7415 35.3911 21.8938 35.3243L23.3673 36.7854C23.7545 37.1694 24.3608 37.23 24.8176 36.9306C25.6561 36.3808 26.4443 35.7421 27.1601 35.0323C27.8756 34.3229 28.5195 33.5415 29.0742 32.71C29.3764 32.257 29.3153 31.6557 28.928 31.2717L27.4544 29.8105C27.5218 29.6596 27.5857 29.5069 27.646 29.3528H29.7294C30.2771 29.3528 30.7491 28.9705 30.8584 28.4383C31.0592 27.4607 31.1611 26.4566 31.1611 25.4537C31.161 24.9375 31.133 24.4176 31.0783 23.9002C33.4142 22.6204 35 20.1526 35 17.3242ZM28.8565 25.4541C28.8565 25.9937 28.8217 26.5336 28.7528 27.0678H26.824C26.3147 27.0678 25.8657 27.3993 25.7199 27.8832C25.5514 28.4426 25.3242 28.9852 25.0445 29.4961C24.8011 29.9409 24.8816 30.4913 25.2424 30.8491L26.6077 32.2029C26.2756 32.6287 25.9151 33.0348 25.5303 33.4165C25.1452 33.7984 24.7356 34.1558 24.3062 34.4849L22.9409 33.1311C22.5802 32.7733 22.0248 32.6935 21.5765 32.9348C21.061 33.2122 20.5139 33.4375 19.9501 33.6044C19.4619 33.7489 19.1275 34.1942 19.1275 34.6993L19.1276 36.6122C18.0504 36.7487 16.9496 36.7487 15.8727 36.6122V34.6993C15.8727 34.1942 15.5382 33.7489 15.0501 33.6044C14.4866 33.4376 13.9394 33.2123 13.4236 32.9348C12.9751 32.6933 12.4201 32.7734 12.0592 33.1311L10.6936 34.4851C10.2642 34.1559 9.85468 33.7985 9.46974 33.4168C9.08503 33.0354 8.72451 32.6291 8.39227 32.203L9.75773 30.849C10.1186 30.4913 10.1991 29.9408 9.9557 29.4961C9.67584 28.9848 9.44869 28.4423 9.28046 27.8836C9.13473 27.3996 8.68572 27.0679 8.17633 27.0679H6.24709C6.17819 26.5338 6.14339 25.9938 6.14339 25.4541C6.14339 25.2042 6.15122 24.9531 6.16651 24.7019C6.6219 24.787 7.09149 24.832 7.57146 24.832H12.2156C12.1914 25.0372 12.1782 25.2445 12.1782 25.4541C12.1782 28.3639 14.5656 30.7312 17.5 30.7312C20.4346 30.7312 22.822 28.3639 22.822 25.4541C22.822 25.2446 22.8089 25.0372 22.7846 24.832H27.4284C27.9084 24.832 28.3778 24.787 28.8333 24.7019C28.8485 24.953 28.8564 25.2041 28.8565 25.4541ZM20.4512 24.832C20.4948 25.0348 20.5175 25.2425 20.5175 25.4541C20.5175 27.1038 19.1639 28.4459 17.5001 28.4459C15.8364 28.4459 14.4829 27.1038 14.4829 25.4541C14.4829 25.2425 14.5055 25.0348 14.5491 24.832H20.4512ZM27.4285 22.5468H18.6523V16.4692L20.1773 17.9813C20.4023 18.2044 20.6972 18.316 20.992 18.316C21.2868 18.316 21.5818 18.2044 21.8068 17.9813C22.2568 17.5351 22.2568 16.8117 21.8068 16.3655L18.3149 12.9031C17.865 12.4569 17.1354 12.4569 16.6854 12.9031L13.1936 16.3655C12.7435 16.8116 12.7435 17.5351 13.1936 17.9813C13.6435 18.4274 14.3731 18.4274 14.8231 17.9813L16.3477 16.4695V22.5468H7.57153C4.66731 22.5468 2.30458 20.2039 2.30458 17.3242C2.30458 14.4487 4.66062 12.1084 7.55901 12.1017C7.5776 12.1022 7.59934 12.1023 7.61778 12.102C8.24716 12.0924 8.7524 11.5832 8.7524 10.9591C8.75232 6.17624 12.6766 2.28516 17.5 2.28516C22.3235 2.28516 26.2477 6.17624 26.2477 10.9598C26.2477 11.2644 26.3704 11.5564 26.5884 11.7709C26.8044 11.9833 27.0961 12.1023 27.4 12.1023H27.4093C27.4205 12.1022 27.4315 12.102 27.4432 12.1016C30.3406 12.1096 32.6953 14.4493 32.6953 17.3242C32.6954 20.2039 30.3327 22.5468 27.4285 22.5468Z" fill="white"/>
</svg>
