<svg width="39" height="39" viewBox="0 0 39 39" fill="none" xmlns="http://www.w3.org/2000/svg">
<path d="M32.2926 16.4023C35.7438 16.4023 38.5566 13.5969 38.5566 10.1383V6.26406C38.5566 2.80547 35.7512 0 32.2926 0H6.26406C2.80547 0 0 2.80547 0 6.26406V10.1457C0 13.5969 2.80547 16.4098 6.26406 16.4098H22.3398V23.4309L19.8313 27.1047C18.9109 28.448 18.7773 30.1996 19.4676 31.6691L22.4363 38C22.607 38.3637 22.9781 38.6012 23.3789 38.6012C23.5348 38.6012 23.6832 38.5715 23.8168 38.5047C24.3363 38.2598 24.559 37.6437 24.3141 37.1242L21.3453 30.7934C20.9668 29.9844 21.041 29.0195 21.5457 28.2773L22.3324 27.1195V27.5574C22.3324 28.1289 22.8 28.5965 23.3715 28.5965C23.943 28.5965 24.4105 28.1289 24.4105 27.5574V14.1461C24.4105 13.7453 24.7371 13.4187 25.1379 13.4187C25.5387 13.4187 25.8652 13.7453 25.8652 14.1461V25.1082C25.8652 25.6797 26.3328 26.1473 26.9043 26.1473C27.4758 26.1473 27.9434 25.6797 27.9434 25.1082V21.6496C27.9434 21.2488 28.2699 20.9223 28.6707 20.9223C29.0715 20.9223 29.398 21.2488 29.398 21.6496V25.1082C29.398 25.6797 29.8656 26.1473 30.4371 26.1473C31.0086 26.1473 31.4762 25.6797 31.4762 25.1082V21.6496C31.4762 21.2488 31.8027 20.9223 32.2035 20.9223C32.6043 20.9223 32.9309 21.2488 32.9309 21.6496V25.1082C32.9309 25.6797 33.3984 26.1473 33.9699 26.1473C34.5414 26.1473 35.009 25.6797 35.009 25.1082V22.9484C35.009 22.5477 35.3355 22.2211 35.7363 22.2211C36.1371 22.2211 36.4637 22.5477 36.4637 22.9484V29.1531C36.4637 30.7785 36.2188 32.3816 35.7289 33.9328L34.6898 37.243C34.5191 37.7922 34.8234 38.3711 35.3727 38.5418C35.4766 38.5715 35.5805 38.5863 35.6844 38.5863C36.1371 38.5863 36.5379 38.2969 36.6789 37.859L37.718 34.5488C38.2672 32.7973 38.5418 30.9789 38.5418 29.1457V22.941C38.5418 21.3898 37.2801 20.1355 35.7363 20.1355C35.3727 20.1355 35.0164 20.2023 34.6898 20.3359C34.2074 19.423 33.25 18.8293 32.2035 18.8293C31.5504 18.8293 30.9344 19.052 30.4371 19.4602C29.9398 19.052 29.3164 18.8293 28.6707 18.8293C28.4258 18.8293 28.1809 18.859 27.9434 18.9258V16.4023H32.2926ZM25.1379 11.3406C23.5867 11.3406 22.3324 12.6023 22.3324 14.1461V14.4727H6.26406C5.11367 14.4727 4.03008 14.0199 3.20625 13.1961C2.38242 12.3723 1.92969 11.2887 1.92969 10.1383V6.26406C1.92969 5.11367 2.38242 4.03008 3.20625 3.20625C4.03008 2.38242 5.11367 1.92969 6.26406 1.92969H32.3C33.4504 1.92969 34.534 2.38242 35.3578 3.20625C36.1742 4.02266 36.627 5.11367 36.627 6.26406V10.1457C36.627 11.2961 36.1742 12.3797 35.3504 13.2035C34.5266 14.0273 33.443 14.4801 32.2926 14.4801H27.9434V14.1535C27.9508 12.6023 26.6891 11.3406 25.1379 11.3406Z" fill="white"/>
</svg>
