<svg width="17" height="15" viewBox="0 0 17 15" fill="none" xmlns="http://www.w3.org/2000/svg">
<path d="M14.085 1.08117C14.3572 0.790945 14.7271 0.626342 15.1138 0.623333C15.5004 0.620324 15.8725 0.779153 16.1487 1.06511C16.4249 1.35107 16.5827 1.7409 16.5877 2.1494C16.5926 2.55791 16.4443 2.95188 16.1751 3.24521L8.38697 13.5312C8.25318 13.6834 8.09173 13.8056 7.91226 13.8904C7.73279 13.9752 7.53899 14.0209 7.34242 14.0248C7.14585 14.0287 6.95055 13.9908 6.76819 13.9132C6.58582 13.8356 6.42012 13.72 6.28099 13.5732L1.11736 8.12008C0.842959 7.83005 0.688856 7.43674 0.68895 7.02667C0.689043 6.6166 0.843324 6.22337 1.11785 5.93348C1.39238 5.64358 1.76467 5.48078 2.15282 5.48088C2.54097 5.48097 2.91318 5.64397 3.18758 5.934L7.2714 10.2495L14.0463 1.12944C14.0586 1.11285 14.0719 1.09708 14.086 1.08222L14.085 1.08117Z" fill="white"/>
</svg>
