<svg width="14" height="12" viewBox="0 0 14 12" fill="none" xmlns="http://www.w3.org/2000/svg">
<path d="M0 2.5C0 2.03587 0.184374 1.59075 0.512563 1.26256C0.840752 0.934374 1.28587 0.75 1.75 0.75H12.25C12.7141 0.75 13.1592 0.934374 13.4874 1.26256C13.8156 1.59075 14 2.03587 14 2.5V9.5C14 9.96413 13.8156 10.4092 13.4874 10.7374C13.1592 11.0656 12.7141 11.25 12.25 11.25H1.75C1.28587 11.25 0.840752 11.0656 0.512563 10.7374C0.184374 10.4092 0 9.96413 0 9.5V2.5ZM1.75 1.625C1.51794 1.625 1.29538 1.71719 1.13128 1.88128C0.967187 2.04538 0.875 2.26794 0.875 2.5V2.68988L7 6.36487L13.125 2.68988V2.5C13.125 2.26794 13.0328 2.04538 12.8687 1.88128C12.7046 1.71719 12.4821 1.625 12.25 1.625H1.75ZM13.125 3.71012L8.96175 6.20825L13.125 8.72475V3.711V3.71012ZM13.0952 9.72837L8.11213 6.7175L7 7.38513L5.887 6.7175L0.90475 9.7275C0.954798 9.91337 1.06474 10.0776 1.21755 10.1946C1.37036 10.3117 1.55751 10.3751 1.75 10.375H12.25C12.4424 10.3751 12.6294 10.3119 12.7822 10.195C12.935 10.0781 13.045 9.91408 13.0952 9.72837ZM0.875 8.72475L5.03825 6.20825L0.875 3.71012V8.72388V8.72475Z" fill="#222222"/>
</svg>
