<svg width="25" height="25" viewBox="0 0 25 25" fill="none" xmlns="http://www.w3.org/2000/svg">
<path d="M21.6845 1.72612H13.1904C11.7942 1.72612 10.6528 2.88275 10.6528 4.2787V6.53455C10.6528 6.88414 10.9363 7.16741 11.2859 7.16741C11.6355 7.16741 11.9187 6.88414 11.9187 6.53455V4.2787C11.9205 3.57479 12.4865 3.00211 13.1904 2.99202H21.6845C22.3826 2.99202 22.9319 3.58073 22.9319 4.2787V20.6459C22.9403 21.3397 22.3846 21.9088 21.6908 21.917H13.1906C12.4894 21.9144 11.9217 21.3469 11.9187 20.6459V18.4372C11.9187 18.0874 11.6355 17.8041 11.2859 17.8041C10.9363 17.8041 10.6528 18.0874 10.6528 18.4372V20.6459C10.6566 22.0458 11.7905 23.1795 13.1904 23.1829H21.6845C23.0778 23.1777 24.2034 22.0434 24.1978 20.6499V4.2787C24.1978 2.88275 23.0806 1.72612 21.6845 1.72612Z" fill="#4198F1"/>
<path d="M2.93234 13.1192H17.9121C18.2617 13.1192 18.5451 12.8357 18.5451 12.4861C18.5451 12.1368 18.2617 11.8533 17.9121 11.8533H2.79179L6.03918 8.09955C6.26821 7.8333 6.2397 7.43225 5.97603 7.20085C5.71296 6.97083 5.31329 6.99755 5.08347 7.26043V7.26083L0.990238 11.9754C0.839399 12.0995 0.754478 12.2864 0.760021 12.4814C0.76596 12.6768 0.861768 12.8585 1.01993 12.9733L5.11356 17.0669C5.3608 17.3142 5.76165 17.3142 6.0085 17.0669C6.25257 16.8274 6.25633 16.4359 6.01701 16.1918C6.01424 16.1892 6.01147 16.1864 6.0085 16.1837L2.93234 13.1192Z" fill="#4198F1"/>
</svg>
