<svg width="30" height="30" viewBox="0 0 30 30" fill="none" xmlns="http://www.w3.org/2000/svg">
<circle cx="15" cy="15" r="15" fill="#67C8FF"/>
<path d="M15 8C15.2321 8 15.4546 8.09219 15.6187 8.25628C15.7828 8.42038 15.875 8.64294 15.875 8.875V14.125H21.125C21.3571 14.125 21.5796 14.2172 21.7437 14.3813C21.9078 14.5454 22 14.7679 22 15C22 15.2321 21.9078 15.4546 21.7437 15.6187C21.5796 15.7828 21.3571 15.875 21.125 15.875H15.875V21.125C15.875 21.3571 15.7828 21.5796 15.6187 21.7437C15.4546 21.9078 15.2321 22 15 22C14.7679 22 14.5454 21.9078 14.3813 21.7437C14.2172 21.5796 14.125 21.3571 14.125 21.125V15.875H8.875C8.64294 15.875 8.42038 15.7828 8.25628 15.6187C8.09219 15.4546 8 15.2321 8 15C8 14.7679 8.09219 14.5454 8.25628 14.3813C8.42038 14.2172 8.64294 14.125 8.875 14.125H14.125V8.875C14.125 8.64294 14.2172 8.42038 14.3813 8.25628C14.5454 8.09219 14.7679 8 15 8Z" fill="white"/>
</svg>
