<svg width="38" height="38" viewBox="0 0 38 38" fill="none" xmlns="http://www.w3.org/2000/svg">
<path d="M33.8927 0H28.5742C27.9594 0 27.4609 0.498453 27.4609 1.11328C27.4609 1.72811 27.9594 2.22656 28.5742 2.22656H33.8927C34.9297 2.22656 35.7734 3.07028 35.7734 4.10727V9.42578C35.7734 10.0406 36.2719 10.5391 36.8867 10.5391C37.5015 10.5391 38 10.0406 38 9.42578V4.10727C38 1.84255 36.1574 0 33.8927 0Z" fill="white"/>
<path d="M1.11328 10.5391C1.72811 10.5391 2.22656 10.0406 2.22656 9.42578V4.10727C2.22656 3.07028 3.07028 2.22656 4.10734 2.22656H9.42578C10.0406 2.22656 10.5391 1.72811 10.5391 1.11328C10.5391 0.498453 10.0406 0 9.42578 0H4.10734C1.84255 0 0 1.84255 0 4.10727V9.42578C0 10.0406 0.498453 10.5391 1.11328 10.5391Z" fill="white"/>
<path d="M9.42578 35.7734H4.10734C3.07028 35.7734 2.22656 34.9297 2.22656 33.8927V28.5742C2.22656 27.9594 1.72811 27.4609 1.11328 27.4609C0.498453 27.4609 0 27.9594 0 28.5742V33.8927C0 36.1574 1.84255 38 4.10734 38H9.42578C10.0406 38 10.5391 37.5015 10.5391 36.8867C10.5391 36.2719 10.0406 35.7734 9.42578 35.7734Z" fill="white"/>
<path d="M36.8867 27.4609C36.2719 27.4609 35.7734 27.9594 35.7734 28.5742V33.8927C35.7734 34.9298 34.9297 35.7734 33.8927 35.7734H28.5742C27.9594 35.7734 27.4609 36.2719 27.4609 36.8867C27.4609 37.5015 27.9594 38 28.5742 38H33.8927C36.1574 38 38 36.1574 38 33.8927V28.5742C38 27.9594 37.5015 27.4609 36.8867 27.4609Z" fill="white"/>
<path d="M33.1758 32.0625V20.1875C33.1758 19.5727 32.6773 19.0742 32.0625 19.0742H20.1875C19.5727 19.0742 19.0742 19.5727 19.0742 20.1875V32.0625C19.0742 32.6773 19.5727 33.1758 20.1875 33.1758H32.0625C32.6773 33.1758 33.1758 32.6773 33.1758 32.0625ZM30.9492 30.9492H21.3008V21.3008H30.9492V30.9492Z" fill="white"/>
<path d="M23.1562 16.5508H31.4688C32.0836 16.5508 32.582 16.0523 32.582 15.4375V7.125C32.582 6.51017 32.0836 6.01172 31.4688 6.01172H23.1562C22.5414 6.01172 22.043 6.51017 22.043 7.125V15.4375C22.043 16.0523 22.5414 16.5508 23.1562 16.5508ZM24.2695 8.23828H30.3555V14.3242H24.2695V8.23828Z" fill="white"/>
<path d="M16.625 4.82422H5.9375C5.32267 4.82422 4.82422 5.32267 4.82422 5.9375V16.625C4.82422 17.2398 5.32267 17.7383 5.9375 17.7383H16.625C17.2398 17.7383 17.7383 17.2398 17.7383 16.625V5.9375C17.7383 5.32267 17.2398 4.82422 16.625 4.82422ZM15.5117 15.5117H7.05078V7.05078H15.5117V15.5117Z" fill="white"/>
<path d="M15.4375 30.9492H7.05078V21.375C7.05078 20.7602 6.55233 20.2617 5.9375 20.2617C5.32267 20.2617 4.82422 20.7602 4.82422 21.375V32.0625C4.82422 32.6773 5.32267 33.1758 5.9375 33.1758H15.4375C16.0523 33.1758 16.5508 32.6773 16.5508 32.0625C16.5508 31.4477 16.0523 30.9492 15.4375 30.9492Z" fill="white"/>
<path d="M11.8008 27.3125V21.375C11.8008 20.7602 11.3023 20.2617 10.6875 20.2617C10.0727 20.2617 9.57422 20.7602 9.57422 21.375V27.3125C9.57422 27.9273 10.0727 28.4258 10.6875 28.4258C11.3023 28.4258 11.8008 27.9273 11.8008 27.3125Z" fill="white"/>
<path d="M15.4375 20.2617C14.8227 20.2617 14.3242 20.7602 14.3242 21.375V27.3125C14.3242 27.9273 14.8227 28.4258 15.4375 28.4258C16.0523 28.4258 16.5508 27.9273 16.5508 27.3125V21.375C16.5508 20.7602 16.0523 20.2617 15.4375 20.2617Z" fill="white"/>
<path d="M24.9375 27.2383H27.3125C27.9273 27.2383 28.4258 26.7398 28.4258 26.125C28.4258 25.5102 27.9273 25.0117 27.3125 25.0117H24.9375C24.3227 25.0117 23.8242 25.5102 23.8242 26.125C23.8242 26.7398 24.3227 27.2383 24.9375 27.2383Z" fill="white"/>
<path d="M11.2812 12.9883C11.8961 12.9883 12.3945 12.4898 12.3945 11.875V10.6875C12.3945 10.0727 11.8961 9.57422 11.2812 9.57422C10.6664 9.57422 10.168 10.0727 10.168 10.6875V11.875C10.168 12.4898 10.6664 12.9883 11.2812 12.9883Z" fill="white"/>
</svg>
