<svg width="26" height="26" viewBox="0 0 26 26" fill="none" xmlns="http://www.w3.org/2000/svg">
<path d="M20.6172 16.8594C19.1122 16.8594 17.775 17.5907 16.9417 18.7165L9.76788 15.0503C9.88823 14.6415 9.95312 14.2091 9.95312 13.7617C9.95312 13.1558 9.83435 12.5773 9.61929 12.0477L17.138 7.5303C17.9769 8.51495 19.2253 9.14062 20.6172 9.14062C23.1373 9.14062 25.1875 7.09038 25.1875 4.57031C25.1875 2.05024 23.1373 0 20.6172 0C18.0971 0 16.0469 2.05024 16.0469 4.57031C16.0469 5.15277 16.1566 5.71 16.3561 6.22273L8.81867 10.7514C7.98038 9.7958 6.75091 9.19141 5.38281 9.19141C2.86274 9.19141 0.8125 11.2416 0.8125 13.7617C0.8125 16.2818 2.86274 18.332 5.38281 18.332C6.91245 18.332 8.26881 17.5766 9.09883 16.4193L16.2519 20.0748C16.1187 20.5031 16.0469 20.9581 16.0469 21.4297C16.0469 23.9498 18.0971 26 20.6172 26C23.1373 26 25.1875 23.9498 25.1875 21.4297C25.1875 18.9096 23.1373 16.8594 20.6172 16.8594ZM20.6172 1.52344C22.2972 1.52344 23.6641 2.89027 23.6641 4.57031C23.6641 6.25036 22.2972 7.61719 20.6172 7.61719C18.9371 7.61719 17.5703 6.25036 17.5703 4.57031C17.5703 2.89027 18.9371 1.52344 20.6172 1.52344ZM5.38281 16.8086C3.70277 16.8086 2.33594 15.4418 2.33594 13.7617C2.33594 12.0817 3.70277 10.7148 5.38281 10.7148C7.06286 10.7148 8.42969 12.0817 8.42969 13.7617C8.42969 15.4418 7.06286 16.8086 5.38281 16.8086ZM20.6172 24.4766C18.9371 24.4766 17.5703 23.1097 17.5703 21.4297C17.5703 19.7496 18.9371 18.3828 20.6172 18.3828C22.2972 18.3828 23.6641 19.7496 23.6641 21.4297C23.6641 23.1097 22.2972 24.4766 20.6172 24.4766Z" fill="#4198F1"/>
</svg>
