<svg width="20" height="20" viewBox="0 0 20 20" fill="none" xmlns="http://www.w3.org/2000/svg">
<path d="M19.6322 7.11956C19.4036 6.86302 19.0912 6.69617 18.7509 6.64879V6.64808L13.4356 5.91382L11.3321 0.887741C11.025 0.152063 10.1796 -0.195333 9.444 0.111803C9.0933 0.258236 8.81445 0.537039 8.66806 0.887741L6.56465 5.91382L1.2493 6.64808C0.457374 6.75831 -0.0952536 7.48972 0.0149789 8.28165C0.062353 8.62197 0.229208 8.93434 0.485748 9.16292L4.49049 12.7341L3.66763 18.338C3.57849 18.907 3.83985 19.4739 4.33045 19.7757C4.81415 20.085 5.43633 20.0735 5.90819 19.7464L10.0001 16.9637L14.0919 19.7493C14.7522 20.1974 15.6508 20.0254 16.0989 19.3652C16.3026 19.0651 16.386 18.6995 16.3325 18.3408L15.5097 12.7348L19.5145 9.16359C20.1114 8.63168 20.1641 7.71651 19.6322 7.11956ZM14.2712 11.9277C14.0921 12.0878 14.0054 12.3271 14.0405 12.5648L14.8976 18.5644L10.4036 15.5089C10.1613 15.3443 9.84308 15.3443 9.60081 15.5089L5.0804 18.5458L5.95962 12.562C5.99377 12.3253 5.90714 12.0872 5.72891 11.9277L1.44348 8.06512L7.1631 7.27587C7.41353 7.24134 7.62701 7.077 7.72447 6.84377L10.0086 1.42844C10.0112 1.43162 10.0131 1.43526 10.0143 1.43915L12.2749 6.84092C12.3724 7.07415 12.5859 7.2385 12.8363 7.27302L18.563 8.09726L14.2712 11.9277Z" fill="#3A97F4"/>
</svg>
