<?xml version="1.0" encoding="utf-8"?>
<!-- Generator: Adobe Illustrator 19.2.1, SVG Export Plug-In . SVG Version: 6.00 Build 0)  -->
<svg version="1.1" id="Layer_1" xmlns="http://www.w3.org/2000/svg" xmlns:xlink="http://www.w3.org/1999/xlink" x="0px" y="0px"
	 viewBox="0 0 485 353.6" style="enable-background:new 0 0 485 353.6;" xml:space="preserve">
<style type="text/css">
	.st0{fill:#FCFCFC;}
	.st1{fill:#E6E6E6;}
	.st2{opacity:0.2;enable-background:new    ;}
	.st3{fill:#3B97F4;}
	.st4{fill:#000F44;}
	.st5{fill:#1E3865;}
	.st6{fill:#FFAE73;}
	.st7{fill:#F99352;}
	.st8{fill:#2A3967;}
	.st9{fill:#25468F;}
	.st10{fill:#FFFFFF;}
	.st11{fill:#1F529F;}
	.st12{fill:#3075C6;}
	.st13{fill:#0B3563;}
	.st14{fill:#F48F4E;}
</style>
<g id="OBJECTS">
	<g>
		<path class="st0" d="M151.7,302.5V20c0-11,9-20,20-20h161.6c11,0,20,9,20,20v282.5c0,11-9,20-20,20H171.7
			C160.6,322.5,151.7,313.5,151.7,302.5z"/>
		<g>
			<path class="st1" d="M307.4,247.8H197.2c-6.5,0-11.8-5.3-11.8-11.8l0,0c0-6.5,5.3-11.8,11.8-11.8h110.1c6.5,0,11.8,5.3,11.8,11.8
				l0,0C319.1,242.5,313.9,247.8,307.4,247.8z"/>
		</g>
		<g>
			<path class="st1" d="M307.4,208.6H197.2c-6.5,0-11.8-5.3-11.8-11.8l0,0c0-6.5,5.3-11.8,11.8-11.8h110.1c6.5,0,11.8,5.3,11.8,11.8
				l0,0C319.1,203.4,313.9,208.6,307.4,208.6z"/>
		</g>
		<rect x="152" y="29.5" class="st2" width="201.6" height="2.4"/>
		<g>
			<path class="st3" d="M284.9,302h-63.8c-6,0-11-4.9-11-11l0,0c0-6.1,4.9-11,11-11h63.8c6,0,11,4.9,11,11l0,0
				C295.9,297.1,290.9,302,284.9,302z"/>
		</g>
		<g>
			<path class="st1" d="M307.4,165.8H197.2c-6.5,0-11.8-5.3-11.8-11.8l0,0c0-6.5,5.3-11.8,11.8-11.8h110.1c6.5,0,11.8,5.3,11.8,11.8
				l0,0C319.1,160.5,313.9,165.8,307.4,165.8z"/>
		</g>
		<g>
			<path class="st1" d="M307.4,126.6H197.2c-6.5,0-11.8-5.3-11.8-11.8l0,0c0-6.5,5.3-11.8,11.8-11.8h110.1c6.5,0,11.8,5.3,11.8,11.8
				l0,0C319.1,121.4,313.9,126.6,307.4,126.6z"/>
		</g>
		<g>
			<path class="st4" d="M219.3,58.3c-0.1-0.7-0.4-1.3-1-1.7S216.9,56,216,56c-0.7,0-1.2,0.1-1.7,0.3s-0.8,0.5-1.1,0.8
				s-0.4,0.7-0.4,1.2c0,0.4,0.1,0.7,0.3,0.9c0.2,0.3,0.4,0.5,0.7,0.7s0.6,0.3,1,0.5c0.4,0.1,0.7,0.2,1.1,0.3l1.6,0.4
				c0.7,0.2,1.3,0.4,1.9,0.6s1.2,0.6,1.6,1c0.5,0.4,0.9,0.9,1.2,1.4c0.3,0.5,0.4,1.2,0.4,2c0,1-0.3,1.9-0.8,2.7
				c-0.5,0.8-1.3,1.4-2.3,1.8s-2.2,0.7-3.6,0.7c-1.4,0-2.5-0.2-3.5-0.6s-1.8-1-2.3-1.8c-0.6-0.8-0.9-1.8-0.9-2.9h3.1
				c0,0.6,0.2,1.1,0.6,1.5s0.8,0.7,1.3,0.9c0.5,0.2,1.1,0.3,1.8,0.3s1.3-0.1,1.8-0.3c0.5-0.2,0.9-0.5,1.2-0.9s0.4-0.8,0.5-1.3
				c0-0.5-0.1-0.8-0.4-1.1c-0.3-0.3-0.6-0.5-1.1-0.8s-1-0.4-1.6-0.5l-2-0.5c-1.4-0.4-2.6-0.9-3.4-1.7c-0.8-0.8-1.2-1.8-1.2-3
				c0-1,0.3-1.9,0.8-2.7c0.6-0.8,1.3-1.4,2.3-1.8c1-0.4,2.1-0.6,3.3-0.6s2.3,0.2,3.3,0.6c0.9,0.4,1.7,1,2.2,1.8s0.8,1.6,0.8,2.6
				h-3.2V58.3z"/>
			<path class="st4" d="M226.9,56c-0.5,0-0.9-0.2-1.3-0.5c-0.3-0.3-0.5-0.7-0.5-1.2s0.2-0.9,0.5-1.2c0.4-0.3,0.8-0.5,1.3-0.5
				s0.9,0.2,1.3,0.5c0.3,0.3,0.5,0.7,0.5,1.2s-0.2,0.9-0.5,1.2C227.8,55.8,227.3,56,226.9,56z M225.3,71V57.9h3.1V71H225.3z"/>
			<path class="st4" d="M237.2,76.1c-1.1,0-2.1-0.1-2.9-0.4s-1.4-0.7-1.9-1.2s-0.8-1-1-1.6l2.8-0.7c0.1,0.2,0.3,0.5,0.5,0.7
				s0.6,0.5,1,0.6s0.9,0.3,1.5,0.3c0.9,0,1.6-0.2,2.2-0.6c0.6-0.4,0.9-1.1,0.9-2v-2.5h-0.2c-0.2,0.3-0.4,0.6-0.7,1
				c-0.3,0.3-0.7,0.6-1.2,0.8s-1.1,0.3-1.9,0.3c-1,0-1.9-0.2-2.7-0.7s-1.5-1.2-1.9-2.1c-0.5-0.9-0.7-2.1-0.7-3.6
				c0-1.4,0.2-2.7,0.7-3.6c0.5-1,1.1-1.7,1.9-2.3c0.8-0.5,1.7-0.8,2.7-0.8c0.8,0,1.4,0.1,1.9,0.4c0.5,0.3,0.9,0.6,1.2,0.9
				c0.3,0.4,0.5,0.7,0.7,1h0.2v-2.2h3v13.3c0,1.1-0.3,2-0.8,2.7s-1.3,1.3-2.2,1.6C239.5,75.9,238.4,76.1,237.2,76.1z M237.3,68.3
				c0.7,0,1.2-0.2,1.7-0.5s0.8-0.8,1-1.4s0.4-1.3,0.4-2.1c0-0.8-0.1-1.5-0.4-2.2c-0.2-0.6-0.6-1.1-1-1.4c-0.5-0.3-1-0.5-1.7-0.5
				s-1.3,0.2-1.7,0.5c-0.5,0.4-0.8,0.8-1,1.5s-0.3,1.3-0.3,2.1s0.1,1.5,0.4,2.1c0.2,0.6,0.6,1.1,1,1.4
				C236,68.2,236.6,68.3,237.3,68.3z"/>
			<path class="st4" d="M249.6,63.3V71h-3.1V57.9h2.9v2.2h0.2c0.3-0.7,0.8-1.3,1.4-1.7c0.7-0.4,1.5-0.6,2.5-0.6
				c0.9,0,1.7,0.2,2.4,0.6c0.7,0.4,1.2,0.9,1.6,1.7c0.4,0.7,0.6,1.6,0.6,2.7V71H255v-7.9c0-0.9-0.2-1.6-0.7-2.1s-1.1-0.7-1.9-0.7
				c-0.5,0-1,0.1-1.4,0.4s-0.7,0.6-1,1S249.6,62.7,249.6,63.3z"/>
			<path class="st4" d="M275.5,65.4v-7.6h3.1V71h-3v-2.3h-0.1c-0.3,0.7-0.8,1.3-1.5,1.8s-1.5,0.7-2.5,0.7c-0.9,0-1.6-0.2-2.3-0.6
				c-0.7-0.4-1.2-0.9-1.5-1.7c-0.4-0.7-0.6-1.6-0.6-2.7v-8.3h3.1v7.9c0,0.8,0.2,1.5,0.7,2s1.1,0.7,1.8,0.7c0.5,0,0.9-0.1,1.3-0.3
				c0.4-0.2,0.8-0.6,1.1-1C275.4,66.7,275.5,66.1,275.5,65.4z"/>
			<path class="st4" d="M281.8,75.9v-18h3V60h0.2c0.2-0.3,0.4-0.7,0.7-1c0.3-0.4,0.7-0.7,1.2-0.9c0.5-0.3,1.1-0.4,1.9-0.4
				c1,0,1.9,0.3,2.7,0.8c0.8,0.5,1.5,1.3,1.9,2.3c0.5,1,0.7,2.2,0.7,3.7c0,1.4-0.2,2.7-0.7,3.7s-1.1,1.8-1.9,2.3s-1.7,0.8-2.8,0.8
				c-0.8,0-1.4-0.1-1.9-0.4s-0.9-0.6-1.2-0.9c-0.3-0.4-0.5-0.7-0.7-1h-0.1v7L281.8,75.9L281.8,75.9z M284.8,64.4
				c0,0.8,0.1,1.6,0.4,2.2c0.2,0.6,0.6,1.1,1,1.5c0.5,0.4,1,0.5,1.7,0.5s1.3-0.2,1.7-0.5c0.5-0.4,0.8-0.9,1-1.5s0.4-1.4,0.4-2.2
				c0-0.8-0.1-1.5-0.3-2.2c-0.2-0.6-0.6-1.1-1-1.5s-1-0.5-1.7-0.5s-1.2,0.2-1.7,0.5s-0.8,0.8-1,1.5
				C284.9,62.8,284.8,63.6,284.8,64.4z"/>
		</g>
	</g>
	<g>
		<path class="st5" d="M34.3,343.6c0,0,0-4.6,0.7-6.1s3.2-7.8,3.2-7.8h10c0,0,1.9,5.7,2,7.6s0,6.4,0,6.4H34.3V343.6z"/>
		<path class="st5" d="M97.5,343.6c0,0,0-4.6-0.7-6.1s-3.2-7.8-3.2-7.8h-10c0,0-1.9,5.7-2,7.6s0,6.4,0,6.4h15.9V343.6z"/>
		<path class="st6" d="M57.6,85c0,0-0.4,10.3-1.7,14.9l-11,7.3l41.4,5.9L76.4,100c0,0-3-13.8-1.4-18.8C76.6,76.1,57.6,85,57.6,85z"
			/>
		<path class="st7" d="M57.6,86.4c0,0,3.3,7.4,9.4,7.3c6.2-0.2,7.6-6.8,7.6-6.8L57.6,86.4z"/>
		<path class="st8" d="M53.9,80.3c0,0-2-9.4-3.4-12.2c-1.4-2.8-2.5-15.5,12.9-16.2c0,0,5.9,0.7,9.2-1.2c0,0,0,1.9-0.8,2.5
			c0,0,5.3-1.2,9.5,3.2s-2.8,19.7-2.4,23.3L53.9,80.3z"/>
		<path class="st6" d="M66.3,90.8c-4.5-0.1-12.7-5.7-12.7-12.7V67.3c0-2.5,1.9-4.6,4.2-4.6h17.1c2.3,0,4.2,2.1,4.2,4.6v10.3
			C79,84.8,71.4,90.9,66.3,90.8z"/>
		<path class="st8" d="M53.6,73.1c0,0,0-6.5,5.5-7.5s17.7,3.2,19.5-1.6c1.7-4.8-23.7-4.7-25-1.6C52.3,65.3,53.6,73.1,53.6,73.1z"/>
		<path class="st9" d="M35.5,184c0,0,1.7,50.3-0.9,79c-2.6,28.7,0,68.6,0,68.6s8.3,4.3,17.4,0c0,0,9.9-55.4,9.8-68.6
			c-0.1-14,10.8-76.8,10.8-76.8L35.5,184z"/>
		<path class="st9" d="M97.2,331.6c0,0-8.3,4.3-17.4,0c0,0-9.9-55.4-9.8-68.6c0-5.9-1.9-20.6-4.1-35.5c-3-20.4-6.7-41.3-6.7-41.3
			l38.6-2.3c0,0-3.2,50.4-0.6,79.1C99.8,291.7,97.2,331.6,97.2,331.6z"/>
		<path class="st3" d="M97.3,192.4c0,0-16.5,3-31.5,3c-6.5,0-13.7-0.7-19.3-1.4c-6.3-0.8-10.8-1.6-10.8-1.6s-3.3,0.3-1.4-15.3
			c1.5-11.8,1-22.5,0.7-33.5c0-1.2,0-2.7,0.1-4.3c0.6-12.8,4.7-35.9,7.9-37.1c0,0,4.6-1.6,12.9-2.4c0,0.2,4.8,6.7,10.4,7.5
			c3.5-1.3,6.3-2.4,10.1-7.3c4.9,0.5,10.2,1.4,15.9,2.9c0,0,0.6,2.4,2.8,44.8C96,164.5,102,192.4,97.3,192.4z"/>
		<path class="st5" d="M70,263c0-5.9-1.9-20.6-4.1-35.5c2.3-8.9,7.9-17.5,7.9-17.5C80.9,228.9,70,263,70,263z"/>
		<path class="st3" d="M19.9,152.7c-0.4,0.3,1,3.5,3,7.7c4.1,8.6,11,21.2,11,21.2c-1,3.6-2.1,5.8-2.1,5.8
			c-11.6-8.6-19.1-15.9-23.8-21.5c-6.7-7.9-8.1-12.4-8.1-12.4c25.8-49.6,44-51.5,44-51.5l-2.1,32.8
			C41.7,134.8,21.1,151.7,19.9,152.7z"/>
		<path class="st6" d="M32.5,182.3c0,0,6.3-5.5,8.8-2.4s3,7.9,1,7.6c-2-0.3-6-2.1-6.6-1.2c-0.6,0.9-3.2,2.5-4,1.2
			C31,186.1,32.5,182.3,32.5,182.3z"/>
		<path class="st6" d="M33.9,181.6c-1,3.6-2.1,5.8-2.1,5.8c-11.6-8.6-19.1-15.9-23.8-21.5c3.6-0.3,8.8-1.5,14.9-5.5
			C27,169,33.9,181.6,33.9,181.6z"/>
		<path class="st3" d="M133.6,153.4c0,0-1.4,4.5-8.1,12.4c-4.8,5.6-12.2,12.9-23.8,21.5c0,0-1.1-2.2-2.1-5.8c0,0,6.9-12.7,11-21.2
			c2-4.2,3.4-7.4,3-7.7c-0.9-0.7-13.5-11.1-19.2-15.7c-1.6-1.3-2.7-2.2-2.7-2.2l-1.3-32.3C90.5,102.5,107.8,103.8,133.6,153.4z"/>
		<path class="st6" d="M101,182.3c0,0-6.3-5.5-8.8-2.4s-3,7.9-1,7.6c2-0.3,6-2.1,6.6-1.2c0.6,0.9,3.2,2.5,4,1.2
			C102.5,186.1,101,182.3,101,182.3z"/>
		<path class="st6" d="M99.6,181.6c1,3.6,2.1,5.8,2.1,5.8c11.6-8.6,19.1-15.9,23.8-21.5c-3.6-0.3-8.8-1.5-14.9-5.5
			C106.5,169,99.6,181.6,99.6,181.6z"/>
		<path class="st9" d="M56.5,97.3c0,0-1.8,0.7-2.4,2.7c0,0,7.4,7.2,12.2,7.3L56.5,97.3z"/>
		<path class="st9" d="M66.3,107.3L75.8,97c0,0,2,1.2,1.9,3.2C77.8,100.2,70.4,107.6,66.3,107.3z"/>
		<path class="st9" d="M64.6,106.5c0,0-7.3,59.3-4.7,66.5c1.3,3.7,3,6.9,4.4,9.2c1,1.6,3.5,1.6,4.5,0c1.9-3.2,4.5-7.7,4.5-10.1
			c0-3.8-5.5-65.6-5.5-65.6L64.6,106.5z"/>
		<path class="st9" d="M62.7,103.6c0,0,4.4-0.4,7.1-0.2c0.5,0.1,0.8,0.6,0.6,1c-0.7,1.3-2.3,3.5-3.9,3.5
			C64.2,108,60.7,103.8,62.7,103.6z"/>
		<path class="st10" d="M62.7,83.8c0,0,1.4,1.8,3.8,1.7c2.4-0.1,3.6-1.7,3.6-1.7S66,83.1,62.7,83.8z"/>
	</g>
	<g>
		<path class="st11" d="M433.1,61.2c-5.9-2-10,0.5-10,0.5c-17.1,0.7-17.7,18.2-15.7,24.7c2.8,9.1-7.1,16.4,3.9,20.1
			c12.8,4.3,23.6-2.5,22.8-0.3C474.6,109.4,446.6,65.6,433.1,61.2z"/>
		<path class="st9" d="M415.4,146.3c0,0-1.6,3.2-4.6,6.9c-3.5,4.4-22.2-6.1-20.6-6.9c1.6-0.8,10.7-26.5,14.5-31.1
			c3.6-4.2,8.5-5.2,8.5-5.2L415.4,146.3z"/>
		<path class="st12" d="M478.2,328c0,0,5.1,4.7,4.1,8s-5.6,5.6-6.3,9.6c-0.6,4.1-3.1,6.3-5.4,6.3s-10.8,0-10.8,0s-1.7-2.9,2.3-3.7
			c4-0.9,5.5-5.6,5.3-10.1c-0.3-4.4,0.4-10.4,0.4-10.4l8.5-2L478.2,328z"/>
		<path class="st12" d="M434.7,330c0,0,1.8,19.9-0.4,21l-28.9-0.1c0,0,0-3.3,4.6-4.1c4.6-0.7,12.8-3.5,14.2-9.5
			C425.6,331.3,434.7,330,434.7,330z"/>
		<path class="st9" d="M456.9,132.9c0,0,0.4,6.1,0,13.3c-0.3,4.8-5.2,11.3-5.9,12.9c-1.7,4-3.7,4.7-3.7,4.7l-15.2,3.7l-5.3,1.3
			l-16.8-5c0,0-7.7-21.4-4.6-33.4s7.8-20.4,7.8-20.4s11.4-2.6,31.6-1.1L456.9,132.9z"/>
		<path class="st13" d="M458.4,146.4c-0.3,4.8-6.6,11.1-7.3,12.7c-1.7,4-3.7,4.7-3.7,4.7l-15.2,3.7l-4-5.7c0,0,24.5-6.8,19.9-28.5
			L458.4,146.4z"/>
		<path class="st4" d="M411.1,167c0,0-8.3,25.9-8.9,34.7c-0.5,8.8,15.9,125.3,16.6,129.4c0.6,3.8,5.4,6.3,5.4,6.3s2.2,1.3,5.3,0.4
			c4.3-1.2,5.7-2.7,5.7-2.7s6.5-83.1,2.5-112.7c-4-29.7-4.1-55.3-4.1-55.3L411.1,167L411.1,167z"/>
		<path class="st4" d="M446.4,166.2c0,0,12.7,17,13.9,28.5c1.2,11.5,1.9,52,4.4,63.2c2.5,11.2,11.8,32.8,11.8,67.8c0,0-1,2-3.9,3.1
			c-1,0.3-2.2,0.7-3.5,1c-2.5,0.6-5-0.6-6.1-2.9c-6.3-12.6-26.2-53.3-27.2-61.7c-0.7-6-7-45.5-20.8-68.7c-3.3-5.6,2-27.7,2-27.7
			L446.4,166.2z"/>
		<path class="st13" d="M409.8,163c0,0,3.3,2.6,10,2.8c7.9,0.2,27.6-2,27.6-2s0.9,2.4,0.8,5c0,0-24,6.1-37.9,0.9
			C410.3,169.7,408.5,166.3,409.8,163z"/>
		<g>
			<path class="st10" d="M417.9,172.6c-2,0-3.6-1.8-3.6-4.1s1.6-4.1,3.6-4.1s3.6,1.8,3.6,4.1S419.9,172.6,417.9,172.6z M417.9,165.6
				c-1.3,0-2.4,1.3-2.4,2.9c0,1.6,1.1,2.9,2.4,2.9s2.4-1.3,2.4-2.9C420.3,166.9,419.2,165.6,417.9,165.6z"/>
		</g>
		<polygon class="st3" points="435.2,180.1 399.2,180.4 381.4,138.7 417.5,138.4 		"/>
		<path class="st6" d="M430.5,161.2l-2.6-3.2c0,0-1.8-1.6-3.1-1.9c-1.3-0.3-4-1.9-4.3-1.4c-0.3,0.4,2.1,3.6,2.1,3.6h0.1
			c-2.7,2-9.6,0.2-10.4,1.1c-1,1,1.4,3.2,2.7,4.4c1.3,1.2,5.1,3.3,8,2.4c2.1-0.7,5.5-1.3,5.5-1.3L430.5,161.2z"/>
		<path class="st6" d="M384.1,146c0,0,2.3-2.6,3.7-1.3c1.4,1.2-0.4,7.3-1.8,6.7C384.7,150.8,383.3,146.8,384.1,146z"/>
		<path class="st9" d="M444.8,108.9c0,0,12,0.8,16.6,12s13.1,29.6,11.3,37.4c-0.7,3.1-9.5,13.7-46,7c0,0,0.3-3.8,2.8-5.6
			c0,0,25.7-8.3,25.7-9.9c-0.1-3.1-3.5-5.8-17.9-20.2C433.4,125.6,444.8,108.9,444.8,108.9z"/>
		<path class="st6" d="M436.9,109.4c0.4-0.5-0.1-2-0.7-4.8c-0.5-2.6-1.4-6.5-1.4-11l-0.8,0.1l-12.8,2.2c0,0,0.3,3.4,0.3,6.6v0.1
			c0,2.8-0.8,7,0.2,7.6C426.6,113,435.5,111.2,436.9,109.4z"/>
		<path class="st14" d="M421.3,95.9c0,0,0.3,4.8,0.3,8c7.2-0.2,11-7.1,12.5-10.2L421.3,95.9z"/>
		<path class="st6" d="M420.5,101.7c0,0,16.8-2.4,15.1-12.8c-1.6-10.4-0.6-17.7-11.4-16.7c-10.8,1.1-12.2,5.4-12.5,9
			S416.1,102,420.5,101.7z"/>
		<path class="st11" d="M416.6,73.1c0,0,6.5,11.5,13.8,12.2s10.1-1.7,10.1-1.7s-6.1-3.4-8.4-10.7C432.1,72.9,419.1,66.8,416.6,73.1z
			"/>
		<path class="st11" d="M417.9,73.9c0,0-3.2,1.8-4.2,4.5c-1,2.6-1.6,6-0.7,9.9c0,0-4.8-7.8-1.6-13.1
			C414.6,69.7,417.9,73.9,417.9,73.9z"/>
	</g>
</g>
<g id="DESIGNED_BY_FREEPIK">
</g>
</svg>
