<?xml version="1.0" encoding="utf-8"?>
<svg version="1.1" id="_x2018_лой_x5F_1" x="0px" y="0px" viewBox="0 0 1781 1033" style="enable-background:new 0 0 1781 1033;" xmlns="http://www.w3.org/2000/svg">
  <style type="text/css">
	.st0{fill:#EA8E50;}
	.st1{fill:#1E3D70;}
	.st2{fill:#204272;}
	.st3{fill:#E2810E;}
	.st4{fill:#FFC76C;}
	.st5{fill:#FFA412;}
	.st6{fill:#2B478B;}
	.st7{fill:#233862;}
	.st8{fill:#FFB07B;}
	.st9{fill:#AEC3FF;}
	.st10{fill:#91B0F2;}
	.st11{fill:#FFAE39;}
	.st12{fill:#FFB27D;}
	.st13{fill:#ED975D;}
	.st14{fill:#E2E2E2;}
	.st15{fill:#5296EC;}
</style>
  <g>
    <g>
      <g>
        <path class="st0" d="M399.5,420.1l11.2,9.1c0,0,30.6-11,37.6,25.4c0,0,1.8,15.5-8,15.5s-5.8-1.7-19.7-1.3 c-13.9,0.4-25.5-6.9-27.5-18.2l-6.7-9.6L399.5,420.1z"/>
        <path class="st1" d="M398.2,439.6c8.9-9.3,8.2-16.2,8.2-16.2s-103.5-84.7-114-91.6c-7.2-4.7-83.4-72.3-119-113.4 c-17.7-20.4-39.6-12.5-64.6-5.3L88.2,219c-24.9,7.1-31.4,42-10.9,58.9c57.5,47.7,153.3,101.3,171.2,112.5 c44.5,28,131.5,61.2,131.5,61.2S390.5,447.6,398.2,439.6z"/>
      </g>
      <path class="st2" d="M516.3,960.1c0,0,25.1,18.8,63.6,8.9c0,0,31-7.1,37.8,8.4c0,0-47.6,24.2-59.6,30.8 c-9.1,5-18.5,12.8-25.2,18.9c-5.3,4.8-13.6,4.2-18.1-1.4c-2.1-2.6-4.5-5.6-7.1-9.2c-7.3-9.9-24.4-42.1-24.4-42.1L516.3,960.1z"/>
      <g>
        <circle class="st3" cx="405.4" cy="272.7" r="175.6"/>
        <circle class="st4" cx="390.1" cy="272.7" r="175.6"/>
        <g>
          <path class="st5" d="M390.1,434.7c-42.7,0-82.9-16.6-113.1-46.9c-30.2-30.2-46.9-70.4-46.9-113.1s16.6-82.9,46.9-113.1 c30.2-30.2,70.4-46.9,113.1-46.9s82.9,16.6,113.1,46.9S550,232,550,274.8s-16.6,82.9-46.9,113.1 C473,418.1,432.8,434.7,390.1,434.7z M390.1,124.4c-82.9,0-150.4,67.5-150.4,150.4s67.5,150.4,150.4,150.4 s150.4-67.5,150.4-150.4C540.5,191.8,473,124.4,390.1,124.4z"/>
        </g>
      </g>
      <path class="st6" d="M531.1,950.5c0,0-15.3,35.3-50.6,28.8c0,0-72-59.5-121.4-121.3c-16-20.1-29.7-40.4-37.7-59 C288.6,723.1,200.2,610,144,552.7l140.7-50.9c0,0,45.1,90.6,105,202C432.8,784,483.7,875,531.1,950.5z"/>
      <path class="st7" d="M389.6,703.8L359,858c-16-20.1-29.7-40.4-37.7-59c-32.8-75.9-121.2-189-177.4-246.3l140.7-50.9 C284.5,501.8,329.6,592.5,389.6,703.8z"/>
      <path class="st2" d="M274.6,980.5c0,0-1.5,28.1,32.6,31.9c0,0,21.1,0.5,21.2,18.4H225.7c0,0-0.9-7.3-1.6-22.8 c-0.5-11.9,11.5-42.9,11.5-42.9L274.6,980.5z"/>
      <path class="st6" d="M238.4,501.8c0,0,62.7,68.9,102.4,192.9c21.6,67.5-39.7,237.2-51.6,296.1c0,0-41.1,3.5-69.3-7.4 c0,0-2.1-121.8,14.3-215.6c9.2-52.5-82.5-112.3-122.6-207.3c-27.3-64.6,5.9-63.5,46.7-65L238.4,501.8z"/>
      <path class="st8" d="M166.1,194.6c-34.9,19.7-106.2,1.5-106.2,1.5s29-33.1,15.8-86.5l27.4,13.9l29.4,14.9c0,0,1.9,9.4,3.2,26.4 c0.3,4.4,0.6,9.2,0.8,14.6C154.4,184.8,166.1,194.6,166.1,194.6z"/>
      <path class="st9" d="M293.9,498.3c0,6.1-7.1,9.1-8.6,9.4c-14.1,2.6-53.3,17.8-88.7,21.3c-29.8,3.1-57.4,0.2-87.8-5.9 c-4-0.8-13.5-3.4-14.1-7.2C93.9,511.6-22.5,278.7,68,178.6c2.1-2.3,20,1.9,36.3,5.8c15.1,3.6,28.9,1.6,41.3-3.4l15.3,8.1 c18.8,10.5,54.4,47.7,58.5,76.9c2.1,14.9,10.6,25.9,13.1,38.9c0.9,4.8,1.8,9.6,2.8,14.2c1.9,9,3.8,17.6,5.7,25.8 c5.3,22.1,10.9,41.1,16.4,57.5c5.9,17.4,11.6,32,16.8,44.1c6.7,15.7,12.3,27.5,15.8,36.5C292.5,489.3,293.9,494.2,293.9,498.3z"/>
      <path class="st10" d="M290,482.9C125.8,405.6,68.9,257,68.9,257s133.4,49.2,166.3,62c1.9,9,3.8,17.6,5.7,25.8 c5.3,22.1,10.9,41.1,16.4,57.5c5.9,17.4,11.6,32,16.8,44.1C280.9,462.2,286.5,473.9,290,482.9z"/>
      <path class="st8" d="M386.1,438.1l14.2,5.2c0,0,28.4-20.1,46.1,12.6c0,0,6.4,14.3-3.7,17.4s-6.4,0.2-20.7,4.9 c-14.2,4.7-28.3,1.3-33.6-8.8l-9.6-7.1L386.1,438.1z"/>
      <path class="st9" d="M397.8,458.2c5.2-13.7,7.6-19.9,7.6-19.9s-107.2-87.4-118.2-94.9c-7.4-5.1-81.6-60.5-117.7-103.7 c-17.9-21.4-46.2-31.2-73.5-25.5l-22.5,4.7c-27.2,5.7-36,40.1-14.9,58.2c59.4,50.9,159.5,110,178.2,122.2 c46.4,30.5,148.9,73.2,148.9,73.2S393.6,468.9,397.8,458.2z"/>
      <path class="st0" d="M135.6,164.9c-34.3,1.9-56.6-26.4-56.6-26.4s15.5-8.6,24-14.9l29.4,14.9C132.4,138.5,134.3,147.9,135.6,164.9 z"/>
      <path class="st8" d="M150.3,129.7c0,0-51.9,37.3-74.7,4.6c-22.7-32.7-44.7-49.9-12.5-75.1S110.5,42,120.7,51 S163.2,119.1,150.3,129.7z"/>
      <path class="st7" d="M126.2,21.4C124.3,8.8,120.1,0,120.1,0s-3.3,13.5-27.9,11.6C67.5,9.7,28.4,14,15.4,42.1 c-0.8,1.8-1.6,3.6-2.2,5.5C10.8,41.4,10.3,32,10.3,32c-4.7,12.1,0,27.3,0,27.3l0,0c-0.1,0.4-0.1,0.9-0.2,1.3 C4.6,65.3,0,79.6,0,79.6c1.6-4,5.7-6.6,9.2-8.2C9.1,93.3,18,114.7,33.5,121c22.8,9.3,22.6,2.2,45.5,17.4c0,0,6.1-7.6,2-12.7 c-4.2-5.1-20-12.6-11.2-20c8.8-7.5,12.1,0.9,15.4-4.2s-13-20,7.9-34C114.1,53.5,128.1,34,126.2,21.4z"/>
    </g>
    <path class="st4" d="M1179.3,1006v18.2c0,1.4,0.5,2.8,1.4,3.9c0.9,1.2,2.3,2.1,3.9,2.6c0.5,0.2,1,0.3,1.5,0.4s1,0.1,1.5,0.1h344.6 c4.4,0,8.1-3,8.3-6.6c0-0.1,0-0.2,0-0.4V1006c0-0.1,0-0.2,0-0.4c-0.2-3.7-3.9-6.6-8.3-6.6h-344.6c-0.5,0-1,0-1.5,0.1 s-1,0.2-1.5,0.4c-1.6,0.5-3,1.4-3.9,2.6C1179.8,1003.2,1179.3,1004.6,1179.3,1006z"/>
    <path class="st11" d="M1348.5,1031.2h184.6c4,0,7.2-3,7.4-6.6c0-0.1,0-0.2,0-0.4V1006c0-0.1,0-0.2,0-0.4c-0.2-3.7-3.5-6.6-7.4-6.6 h-161.9C1368.6,1008.5,1362.5,1021.6,1348.5,1031.2z"/>
    <g>
      <rect x="1221.2" y="999" class="st5" width="3.9" height="32.2"/>
      <rect x="1234.4" y="999" class="st5" width="3.9" height="32.2"/>
      <rect x="1250.3" y="999" class="st5" width="3.9" height="32.2"/>
      <rect x="1274.8" y="999" class="st5" width="3.9" height="32.2"/>
      <rect x="1300.5" y="999" class="st5" width="3.9" height="32.2"/>
      <rect x="1340" y="999" class="st5" width="3.9" height="32.2"/>
      <rect x="1377" y="999" class="st5" width="3.9" height="32.2"/>
      <rect x="1410.1" y="999" class="st5" width="3.9" height="32.2"/>
      <rect x="1208.6" y="999" class="st5" width="3.9" height="32.2"/>
      <rect x="1200.3" y="999" class="st5" width="3.9" height="32.2"/>
      <rect x="1192.2" y="999" class="st5" width="3.9" height="32.2"/>
      <path class="st5" d="M1186.1,999.1v31.9c0.5,0.1,1,0.1,1.5,0.1h2.4V999h-2.4C1187.1,999,1186.6,999.1,1186.1,999.1z"/>
      <path class="st5" d="M1180.7,1002.1v26c0.9,1.2,2.3,2.1,3.9,2.6v-31.2C1183,1000,1181.6,1001,1180.7,1002.1z"/>
    </g>
    <path class="st4" d="M1216.1,973.9V992c0,1.4,0.5,2.8,1.4,3.9c0.9,1.2,2.3,2.1,3.9,2.6c0.5,0.2,1,0.3,1.5,0.4 c0.5,0.1,1,0.1,1.5,0.1H1569c4.4,0,8.1-3,8.3-6.6c0-0.1,0-0.2,0-0.4v-18.2c0-0.1,0-0.2,0-0.4c-0.2-3.7-3.9-6.6-8.3-6.6h-344.6 c-0.2,0-0.4,0-0.7,0c-0.1,0-0.2,0-0.3,0c-0.1,0-0.2,0-0.3,0c-0.1,0-0.1,0-0.2,0c-0.5,0.1-1,0.2-1.5,0.4c-0.1,0-0.1,0-0.2,0.1 c-0.1,0-0.1,0.1-0.2,0.1c-0.1,0.1-0.3,0.1-0.4,0.2c-0.1,0-0.2,0.1-0.2,0.1c-0.1,0-0.1,0.1-0.2,0.1c-0.1,0.1-0.3,0.1-0.4,0.2 c-0.1,0.1-0.3,0.2-0.4,0.3s-0.2,0.1-0.3,0.2l0,0c-0.1,0.1-0.1,0.1-0.2,0.2c-0.2,0.2-0.4,0.3-0.6,0.5c-0.1,0.1-0.1,0.1-0.2,0.2 c-0.1,0.1-0.1,0.1-0.2,0.2c-0.1,0.1-0.2,0.2-0.3,0.4C1216.6,971.1,1216.1,972.4,1216.1,973.9z"/>
    <path class="st11" d="M1385.3,999H1570c4,0,7.2-3,7.4-6.6c0-0.1,0-0.2,0-0.4v-18.2c0-0.1,0-0.2,0-0.4c-0.2-3.7-3.5-6.6-7.4-6.6 h-162c-0.1,0.3-0.1,0.5-0.2,0.8C1405.1,977.1,1399,989.7,1385.3,999z"/>
    <g>
      <rect x="1258.1" y="966.8" class="st5" width="3.9" height="32.2"/>
      <rect x="1271.3" y="966.8" class="st5" width="3.9" height="32.2"/>
      <rect x="1287.2" y="966.8" class="st5" width="3.9" height="32.2"/>
      <rect x="1311.6" y="966.8" class="st5" width="3.9" height="32.2"/>
      <rect x="1337.4" y="966.8" class="st5" width="3.9" height="32.2"/>
      <rect x="1376.9" y="966.8" class="st5" width="3.9" height="32.2"/>
      <rect x="1413.9" y="966.8" class="st5" width="3.9" height="32.2"/>
      <rect x="1446.9" y="966.8" class="st5" width="3.9" height="32.2"/>
      <rect x="1245.5" y="966.8" class="st5" width="3.9" height="32.2"/>
      <rect x="1237.1" y="966.8" class="st5" width="3.9" height="32.2"/>
      <rect x="1229.1" y="966.8" class="st5" width="3.9" height="32.2"/>
      <path class="st5" d="M1223,967v31.9c0.5,0.1,1,0.1,1.5,0.1h2.4v-32.2h-2.4C1223.9,966.9,1223.5,966.9,1223,967z"/>
      <path class="st5" d="M1217.5,970v26c1,1.2,2.3,2.1,3.9,2.6v-31.2C1219.9,967.9,1218.5,968.8,1217.5,970z"/>
    </g>
    <path class="st4" d="M1198.3,942.5v18.2c0,1.4,0.5,2.8,1.4,3.9c0.9,1.2,2.3,2.1,3.9,2.6c0.5,0.2,1,0.3,1.5,0.4 c0.5,0.1,1,0.1,1.5,0.1h344.6c1.4,0,2.7-0.3,3.8-0.8c2.4-1.1,4.2-3.1,4.5-5.5c0-0.1,0-0.2,0-0.3s0-0.2,0-0.4v-18.2 c0-0.1,0-0.2,0-0.4c-0.2-3.7-3.9-6.6-8.3-6.6h-344.6c-0.5,0-1,0-1.5,0.1s-1,0.2-1.5,0.4c-1.6,0.5-3,1.4-3.9,2.6 C1198.8,939.7,1198.3,941,1198.3,942.5z"/>
    <path class="st11" d="M1367.5,967.7h184.6c1.2,0,2.4-0.3,3.4-0.8c2.2-1.1,3.7-3.1,4-5.5c0-0.1,0-0.2,0-0.3s0-0.2,0-0.4v-18.2 c0-0.1,0-0.2,0-0.4c-0.2-3.7-3.5-6.6-7.4-6.6h-161.9c-2.5,9.2-8.3,21.9-21.5,31.4C1368.3,967.1,1367.9,967.4,1367.5,967.7z"/>
    <g>
      <rect x="1240.3" y="935.4" class="st5" width="3.9" height="32.2"/>
      <rect x="1253.5" y="935.4" class="st5" width="3.9" height="32.2"/>
      <rect x="1269.4" y="935.4" class="st5" width="3.9" height="32.2"/>
      <rect x="1293.7" y="935.4" class="st5" width="3.9" height="32.2"/>
      <rect x="1319.6" y="935.4" class="st5" width="3.9" height="32.2"/>
      <rect x="1359.1" y="935.4" class="st5" width="3.9" height="32.2"/>
      <rect x="1396.1" y="935.4" class="st5" width="3.9" height="32.2"/>
      <rect x="1429" y="935.4" class="st5" width="3.9" height="32.2"/>
      <rect x="1227.7" y="935.4" class="st5" width="3.9" height="32.2"/>
      <rect x="1219.3" y="935.4" class="st5" width="3.9" height="32.2"/>
      <rect x="1211.3" y="935.4" class="st5" width="3.9" height="32.2"/>
      <path class="st5" d="M1205.2,935.6v31.9c0.5,0.1,1,0.1,1.5,0.1h2.4v-32.2h-2.4C1206.1,935.5,1205.7,935.5,1205.2,935.6z"/>
      <path class="st5" d="M1199.7,938.6v26c0.9,1.2,2.3,2.1,3.9,2.6V936C1202.1,936.5,1200.7,937.4,1199.7,938.6z"/>
    </g>
    <path class="st4" d="M1190.1,910.3v18.2c0,1.4,0.5,2.8,1.4,3.9c0.9,1.2,2.3,2.1,3.9,2.6c0.5,0.2,1,0.3,1.5,0.4 c0.5,0.1,1,0.1,1.5,0.1H1543c4.4,0,8.1-3,8.3-6.6c0-0.1,0-0.2,0-0.4v-18.2c0-0.1,0-0.2,0-0.4c-0.2-3.4-3.4-6.2-7.3-6.6 c-0.3,0-0.6,0-1,0h-344.6c-0.5,0-1,0-1.5,0.1s-1,0.2-1.5,0.4c-1.6,0.5-3,1.4-3.9,2.6C1190.6,907.5,1190.1,908.9,1190.1,910.3z"/>
    <path class="st11" d="M1359.3,935.5h184.6c4,0,7.2-3,7.4-6.6c0-0.1,0-0.2,0-0.4v-18.2c0-0.1,0-0.2,0-0.4c-0.2-3.4-3-6.2-6.6-6.6 c-0.3,0-0.6,0-0.9,0h-161.9l0,0C1379.3,912.8,1373.3,925.9,1359.3,935.5z"/>
    <g>
      <rect x="1232" y="903.3" class="st5" width="3.9" height="32.2"/>
      <rect x="1245.3" y="903.3" class="st5" width="3.9" height="32.2"/>
      <rect x="1261.2" y="903.3" class="st5" width="3.9" height="32.2"/>
      <rect x="1285.5" y="903.3" class="st5" width="3.9" height="32.2"/>
      <rect x="1311.3" y="903.3" class="st5" width="3.9" height="32.2"/>
      <rect x="1350.8" y="903.3" class="st5" width="3.9" height="32.2"/>
      <rect x="1387.8" y="903.3" class="st5" width="3.9" height="32.2"/>
      <rect x="1420.8" y="903.3" class="st5" width="3.9" height="32.2"/>
      <rect x="1219.3" y="903.3" class="st5" width="3.9" height="32.2"/>
      <rect x="1211.1" y="903.3" class="st5" width="3.9" height="32.2"/>
      <rect x="1203" y="903.3" class="st5" width="3.9" height="32.2"/>
      <path class="st5" d="M1196.9,903.4v31.9c0.5,0.1,1,0.1,1.5,0.1h2.4v-32.2h-2.4C1197.9,903.3,1197.4,903.4,1196.9,903.4z"/>
      <path class="st5" d="M1191.5,906.4v26c0.9,1.2,2.3,2.1,3.9,2.6v-31.2C1193.8,904.3,1192.4,905.2,1191.5,906.4z"/>
    </g>
    <path class="st4" d="M1215.4,878.2v18.2c0,1.4,0.5,2.8,1.4,3.9c0.9,1.2,2.3,2.1,3.9,2.6c0.5,0.2,1,0.3,1.5,0.4c0.2,0,0.3,0,0.5,0.1 c0.1,0,0.2,0,0.3,0c0.1,0,0.2,0,0.3,0c0.1,0,0.3,0,0.4,0h344.6c4.4,0,8.1-3,8.3-6.6c0-0.1,0-0.2,0-0.4v-18.2c0-0.1,0-0.2,0-0.4 c0-0.1,0-0.2,0-0.3c-0.3-3-2.9-5.4-6.3-6.1c-0.1,0-0.2,0-0.3-0.1c-0.6-0.1-1.2-0.2-1.8-0.2h-344.6c-0.3,0-0.5,0-0.7,0 c-0.1,0-0.2,0-0.3,0l0,0c-0.1,0-0.3,0-0.4,0.1c-0.5,0.1-1,0.2-1.5,0.4c-1.6,0.5-3,1.4-3.9,2.6 C1215.9,875.4,1215.4,876.7,1215.4,878.2z"/>
    <path class="st11" d="M1384.6,903.4h184.6c4,0,7.2-3,7.4-6.6c0-0.1,0-0.2,0-0.4v-18.2c0-0.1,0-0.2,0-0.4c0-0.1,0-0.2,0-0.3 c-0.3-3-2.7-5.5-5.8-6.2c-0.1,0-0.2,0-0.3-0.1c-0.4-0.1-0.9-0.1-1.3-0.1h-161.9c0,0.1,0,0.2-0.1,0.2 C1404.6,880.9,1398.6,893.8,1384.6,903.4C1384.7,903.3,1384.6,903.4,1384.6,903.4z"/>
    <g>
      <rect x="1257.4" y="871.2" class="st5" width="3.9" height="32.2"/>
      <rect x="1270.6" y="871.2" class="st5" width="3.9" height="32.2"/>
      <rect x="1286.5" y="871.2" class="st5" width="3.9" height="32.2"/>
      <rect x="1310.9" y="871.2" class="st5" width="3.9" height="32.2"/>
      <rect x="1336.7" y="871.2" class="st5" width="3.9" height="32.2"/>
      <rect x="1376.2" y="871.2" class="st5" width="3.9" height="32.2"/>
      <rect x="1413.1" y="871.2" class="st5" width="3.9" height="32.2"/>
      <rect x="1446.2" y="871.2" class="st5" width="3.9" height="32.2"/>
      <rect x="1244.7" y="871.2" class="st5" width="3.9" height="32.2"/>
      <rect x="1236.3" y="871.2" class="st5" width="3.9" height="32.2"/>
      <rect x="1228.3" y="871.2" class="st5" width="3.9" height="32.2"/>
      <path class="st5" d="M1222.3,871.3v31.9c0.5,0.1,1,0.1,1.5,0.1h2.4v-32.2h-2.4C1223.2,871.2,1222.7,871.2,1222.3,871.3z"/>
      <path class="st5" d="M1216.8,874.3v26c0.9,1.2,2.3,2.1,3.9,2.6v-31.2C1219.1,872.2,1217.8,873.1,1216.8,874.3z"/>
    </g>
    <path class="st4" d="M1216.1,846.3v18.2c0,1.4,0.5,2.8,1.4,3.9c0.9,1.2,2.3,2.1,3.9,2.6c0.4,0.1,0.8,0.2,1.2,0.3l0,0 c0.1,0,0.2,0,0.3,0.1c0.5,0.1,1,0.1,1.5,0.1H1569c0.4,0,0.7,0,1.1-0.1c0.1,0,0.3,0,0.4-0.1c3.7-0.6,6.6-3.3,6.8-6.5 c0-0.1,0-0.2,0-0.4v-18.2c0-0.1,0-0.2,0-0.4c-0.2-3.7-3.9-6.6-8.3-6.6h-344.6c-0.2,0-0.4,0-0.7,0c-0.1,0-0.2,0-0.3,0 c-0.1,0-0.2,0-0.3,0c-0.1,0-0.1,0-0.2,0c-0.5,0.1-1,0.2-1.5,0.4c-0.1,0-0.1,0-0.2,0.1c-0.1,0-0.1,0-0.2,0.1s-0.3,0.1-0.4,0.2 c-0.2,0.1-0.3,0.1-0.5,0.2c-0.1,0.1-0.3,0.1-0.4,0.2c-0.1,0.1-0.3,0.2-0.4,0.3s-0.2,0.1-0.3,0.2l0,0c-0.1,0-0.1,0.1-0.2,0.2 c-0.2,0.2-0.4,0.3-0.6,0.5c-0.1,0.1-0.1,0.1-0.2,0.2c-0.1,0.1-0.1,0.1-0.2,0.2c-0.1,0.1-0.2,0.2-0.3,0.4 C1216.6,843.5,1216.1,844.8,1216.1,846.3z"/>
    <path class="st11" d="M1385.3,871.4H1570c0.1,0,0.3,0,0.4,0c0.2,0,0.3,0,0.5,0c3.5-0.4,6.3-3.2,6.5-6.6c0-0.1,0-0.2,0-0.4v-18.2 c0-0.1,0-0.2,0-0.4c-0.2-3.7-3.5-6.6-7.4-6.6h-162c-0.1,0.3-0.1,0.5-0.2,0.8c-2.7,9.3-8.7,21.8-22.1,31.1 C1385.6,871.3,1385.4,871.3,1385.3,871.4z"/>
    <g>
      <rect x="1258.1" y="839.2" class="st5" width="3.9" height="32.2"/>
      <rect x="1271.3" y="839.2" class="st5" width="3.9" height="32.2"/>
      <rect x="1287.2" y="839.2" class="st5" width="3.9" height="32.2"/>
      <rect x="1311.6" y="839.2" class="st5" width="3.9" height="32.2"/>
      <rect x="1337.4" y="839.2" class="st5" width="3.9" height="32.2"/>
      <rect x="1376.9" y="839.2" class="st5" width="3.9" height="32.2"/>
      <rect x="1413.9" y="839.2" class="st5" width="3.9" height="32.2"/>
      <rect x="1446.9" y="839.2" class="st5" width="3.9" height="32.2"/>
      <rect x="1245.5" y="839.2" class="st5" width="3.9" height="32.2"/>
      <rect x="1237.1" y="839.2" class="st5" width="3.9" height="32.2"/>
      <rect x="1229.1" y="839.2" class="st5" width="3.9" height="32.2"/>
      <path class="st5" d="M1223,839.4v31.9c0.5,0.1,1,0.1,1.5,0.1h2.4v-32.2h-2.4C1223.9,839.3,1223.5,839.3,1223,839.4z"/>
      <path class="st5" d="M1217.5,842.3v26c1,1.2,2.3,2.1,3.9,2.6v-31.2C1219.9,840.2,1218.5,841.2,1217.5,842.3z"/>
    </g>
    <path class="st4" d="M1198.3,814.9V833c0,1.4,0.5,2.8,1.4,3.9c0.9,1.2,2.3,2.1,3.9,2.6c0.5,0.2,1,0.3,1.5,0.4 c0.5,0.1,1,0.1,1.5,0.1h344.6c1.4,0,2.7-0.3,3.8-0.8c2.4-1.1,4.2-3.1,4.5-5.5c0-0.1,0-0.2,0-0.3s0-0.2,0-0.4v-18.2 c0-0.1,0-0.2,0-0.4c-0.2-3.7-3.9-6.6-8.3-6.6h-344.6c-0.5,0-1,0-1.5,0.1s-1,0.2-1.5,0.4c-1.6,0.5-3,1.4-3.9,2.6 C1198.8,812.1,1198.3,813.4,1198.3,814.9z"/>
    <path class="st11" d="M1367.5,840h184.6c1.2,0,2.4-0.3,3.4-0.8c2.2-1.1,3.7-3.1,4-5.5c0-0.1,0-0.2,0-0.3s0-0.2,0-0.4v-18.2 c0-0.1,0-0.2,0-0.4c-0.2-3.7-3.5-6.6-7.4-6.6h-161.9c-2.5,9.2-8.3,21.9-21.5,31.4C1368.3,839.5,1367.9,839.8,1367.5,840z"/>
    <g>
      <rect x="1240.3" y="807.8" class="st5" width="3.9" height="32.2"/>
      <rect x="1253.5" y="807.8" class="st5" width="3.9" height="32.2"/>
      <rect x="1269.4" y="807.8" class="st5" width="3.9" height="32.2"/>
      <rect x="1293.7" y="807.8" class="st5" width="3.9" height="32.2"/>
      <rect x="1319.6" y="807.8" class="st5" width="3.9" height="32.2"/>
      <rect x="1359.1" y="807.8" class="st5" width="3.9" height="32.2"/>
      <rect x="1396.1" y="807.8" class="st5" width="3.9" height="32.2"/>
      <rect x="1429" y="807.8" class="st5" width="3.9" height="32.2"/>
      <rect x="1227.7" y="807.8" class="st5" width="3.9" height="32.2"/>
      <rect x="1219.3" y="807.8" class="st5" width="3.9" height="32.2"/>
      <rect x="1211.3" y="807.8" class="st5" width="3.9" height="32.2"/>
      <path class="st5" d="M1205.2,808v31.9c0.5,0.1,1,0.1,1.5,0.1h2.4v-32.2h-2.4C1206.1,807.9,1205.7,807.9,1205.2,808z"/>
      <path class="st5" d="M1199.7,811v26c0.9,1.2,2.3,2.1,3.9,2.6v-31.2C1202.1,808.9,1200.7,809.8,1199.7,811z"/>
    </g>
    <path class="st4" d="M1170.1,782.7v18.2c0,1.4,0.5,2.8,1.4,3.9c0.9,1.2,2.3,2.1,3.9,2.6c0.5,0.2,1,0.3,1.5,0.4 c0.5,0.1,1,0.1,1.5,0.1H1523c4.4,0,8.1-3,8.3-6.6c0-0.1,0-0.2,0-0.4v-18.2c0-0.1,0-0.2,0-0.4c-0.2-3.4-3.4-6.2-7.3-6.6 c-0.3,0-0.7,0-1,0h-344.6c-0.5,0-1,0-1.5,0.1s-1,0.2-1.5,0.4c-1.6,0.5-3,1.4-3.9,2.6C1170.7,779.9,1170.1,781.3,1170.1,782.7z"/>
    <path class="st11" d="M1339.4,807.9H1524c4,0,7.2-3,7.4-6.6c0-0.1,0-0.2,0-0.4v-18.2c0-0.1,0-0.2,0-0.4c-0.2-3.4-3-6.2-6.6-6.6 c-0.3,0-0.6,0-0.9,0H1362l0,0C1359.4,785.2,1353.4,798.3,1339.4,807.9z"/>
    <g>
      <rect x="1212.1" y="775.7" class="st5" width="3.9" height="32.2"/>
      <rect x="1225.4" y="775.7" class="st5" width="3.9" height="32.2"/>
      <rect x="1241.3" y="775.7" class="st5" width="3.9" height="32.2"/>
      <rect x="1265.6" y="775.7" class="st5" width="3.9" height="32.2"/>
      <rect x="1291.4" y="775.7" class="st5" width="3.9" height="32.2"/>
      <rect x="1330.9" y="775.7" class="st5" width="3.9" height="32.2"/>
      <rect x="1367.9" y="775.7" class="st5" width="3.9" height="32.2"/>
      <rect x="1400.9" y="775.7" class="st5" width="3.9" height="32.2"/>
      <rect x="1199.4" y="775.7" class="st5" width="3.9" height="32.2"/>
      <rect x="1191.2" y="775.7" class="st5" width="3.9" height="32.2"/>
      <rect x="1183.1" y="775.7" class="st5" width="3.9" height="32.2"/>
      <path class="st5" d="M1177,775.8v31.9c0.5,0.1,1,0.1,1.5,0.1h2.4v-32.2h-2.4C1178,775.7,1177.5,775.7,1177,775.8z"/>
      <path class="st5" d="M1171.6,778.8v26c0.9,1.2,2.3,2.1,3.9,2.6v-31.2C1173.9,776.7,1172.5,777.6,1171.6,778.8z"/>
    </g>
    <path class="st4" d="M1215.4,750.6v18.2c0,1.4,0.5,2.8,1.4,3.9c0.9,1.2,2.3,2.1,3.9,2.6c0.5,0.2,1,0.3,1.5,0.4c0.2,0,0.3,0,0.5,0.1 c0.1,0,0.3,0,0.4,0s0.1,0,0.2,0s0.3,0,0.4,0h344.6c4.4,0,8.1-3,8.3-6.6c0-0.1,0-0.2,0-0.4v-18.2c0-0.1,0-0.2,0-0.4 c-0.2-3.7-3.9-6.6-8.3-6.6h-344.6c-0.1,0-0.3,0-0.4,0c-0.4,0-0.7,0-1,0.1c-0.5,0.1-1,0.2-1.5,0.4c-0.2,0.1-0.5,0.2-0.7,0.3 c-0.1,0.1-0.3,0.1-0.4,0.2l0,0c-0.1,0.1-0.3,0.1-0.4,0.2c0,0,0,0-0.1,0c-0.1,0.1-0.3,0.1-0.4,0.2c-0.3,0.2-0.6,0.4-0.8,0.6 c-0.1,0.1-0.2,0.1-0.2,0.2l0,0c-0.1,0-0.1,0.1-0.1,0.1l0,0c-0.1,0.1-0.2,0.2-0.2,0.3c-0.1,0.1-0.2,0.2-0.3,0.4 C1215.9,747.8,1215.4,749.1,1215.4,750.6z"/>
    <path class="st11" d="M1384.6,775.8h184.6c4,0,7.2-3,7.4-6.6c0-0.1,0-0.2,0-0.4v-18.2c0-0.1,0-0.2,0-0.4c-0.2-3.7-3.5-6.6-7.4-6.6 h-161.9c-0.1,0.2-0.1,0.5-0.2,0.7C1404.4,753.7,1398.3,766.4,1384.6,775.8C1384.7,775.7,1384.6,775.7,1384.6,775.8z"/>
    <g>
      <rect x="1257.4" y="743.5" class="st5" width="3.9" height="32.2"/>
      <rect x="1270.6" y="743.5" class="st5" width="3.9" height="32.2"/>
      <rect x="1286.5" y="743.5" class="st5" width="3.9" height="32.2"/>
      <rect x="1310.9" y="743.5" class="st5" width="3.9" height="32.2"/>
      <rect x="1336.7" y="743.5" class="st5" width="3.9" height="32.2"/>
      <rect x="1376.2" y="743.5" class="st5" width="3.9" height="32.2"/>
      <rect x="1413.1" y="743.5" class="st5" width="3.9" height="32.2"/>
      <rect x="1446.2" y="743.5" class="st5" width="3.9" height="32.2"/>
      <rect x="1244.7" y="743.5" class="st5" width="3.9" height="32.2"/>
      <rect x="1236.3" y="743.5" class="st5" width="3.9" height="32.2"/>
      <rect x="1228.3" y="743.5" class="st5" width="3.9" height="32.2"/>
      <path class="st5" d="M1222.3,743.7v31.9c0.5,0.1,1,0.1,1.5,0.1h2.4v-32.2h-2.4C1223.2,743.6,1222.7,743.6,1222.3,743.7z"/>
      <path class="st5" d="M1216.8,746.7v26c0.9,1.2,2.3,2.1,3.9,2.6v-31.2C1219.1,744.6,1217.8,745.5,1216.8,746.7z"/>
    </g>
    <path class="st4" d="M1190.1,719.2v18.2c0,1.4,0.5,2.8,1.4,3.9c0.9,1.2,2.3,2.1,3.9,2.6c0.5,0.2,1,0.3,1.5,0.4 c0.5,0.1,1,0.1,1.5,0.1H1543c1.3,0,2.6-0.3,3.7-0.7c2.5-1.1,4.3-3.2,4.6-5.6c0-0.1,0-0.2,0-0.3s0-0.2,0-0.4v-18.2 c0-0.1,0-0.2,0-0.4c-0.2-3.4-3.4-6.2-7.3-6.6c-0.3,0-0.6,0-1,0h-344.6c-0.5,0-1,0-1.5,0.1s-1,0.2-1.5,0.4c-1.6,0.5-3,1.4-3.9,2.6 C1190.6,716.4,1190.1,717.7,1190.1,719.2z"/>
    <path class="st11" d="M1359.3,744.3h184.6c1.2,0,2.3-0.3,3.3-0.7c2.2-1.1,3.8-3.2,4.1-5.6c0-0.1,0-0.2,0-0.3s0-0.2,0-0.4v-18.2 c0-0.1,0-0.2,0-0.4c-0.2-3.4-3-6.2-6.6-6.6c-0.3,0-0.6,0-0.9,0h-161.9l0,0c-2.5,9.2-8.3,21.9-21.6,31.4 C1360,743.8,1359.6,744.1,1359.3,744.3z"/>
    <g>
      <rect x="1232" y="712.1" class="st5" width="3.9" height="32.2"/>
      <rect x="1245.3" y="712.1" class="st5" width="3.9" height="32.2"/>
      <rect x="1261.2" y="712.1" class="st5" width="3.9" height="32.2"/>
      <rect x="1285.5" y="712.1" class="st5" width="3.9" height="32.2"/>
      <rect x="1311.3" y="712.1" class="st5" width="3.9" height="32.2"/>
      <rect x="1350.8" y="712.1" class="st5" width="3.9" height="32.2"/>
      <rect x="1387.8" y="712.1" class="st5" width="3.9" height="32.2"/>
      <rect x="1420.8" y="712.1" class="st5" width="3.9" height="32.2"/>
      <rect x="1219.3" y="712.1" class="st5" width="3.9" height="32.2"/>
      <rect x="1211.1" y="712.1" class="st5" width="3.9" height="32.2"/>
      <rect x="1203" y="712.1" class="st5" width="3.9" height="32.2"/>
      <path class="st5" d="M1196.9,712.3v31.9c0.5,0.1,1,0.1,1.5,0.1h2.4v-32.2h-2.4C1197.9,712.2,1197.4,712.2,1196.9,712.3z"/>
      <path class="st5" d="M1191.5,715.2v26c0.9,1.2,2.3,2.1,3.9,2.6v-31.2C1193.8,713.1,1192.4,714.1,1191.5,715.2z"/>
    </g>
    <path class="st4" d="M1179.3,687v18.2c0,1.4,0.5,2.8,1.4,3.9c0.9,1.2,2.3,2.1,3.9,2.6c0.5,0.2,1,0.3,1.5,0.4c0.2,0,0.3,0,0.5,0.1 c0.1,0,0.2,0,0.3,0c0.1,0,0.2,0,0.3,0c0.1,0,0.3,0,0.4,0h344.6c4.4,0,8.1-3,8.3-6.6c0-0.1,0-0.2,0-0.4V687c0-0.1,0-0.2,0-0.4 c-0.2-3.7-3.9-6.6-8.3-6.6h-344.6c-0.5,0-1,0-1.5,0.1s-1,0.2-1.5,0.4c-1.6,0.5-3,1.4-3.9,2.6C1179.8,684.2,1179.3,685.6,1179.3,687 z"/>
    <path class="st11" d="M1348.5,712.2h184.6c4,0,7.2-3,7.4-6.6c0-0.1,0-0.2,0-0.4V687c0-0.1,0-0.2,0-0.4c-0.2-3.7-3.5-6.6-7.4-6.6 h-161.9C1368.6,689.5,1362.6,702.6,1348.5,712.2L1348.5,712.2z"/>
    <g>
      <rect x="1221.2" y="680" class="st5" width="3.9" height="32.2"/>
      <rect x="1234.4" y="680" class="st5" width="3.9" height="32.2"/>
      <rect x="1250.3" y="680" class="st5" width="3.9" height="32.2"/>
      <rect x="1274.8" y="680" class="st5" width="3.9" height="32.2"/>
      <rect x="1300.5" y="680" class="st5" width="3.9" height="32.2"/>
      <rect x="1340" y="680" class="st5" width="3.9" height="32.2"/>
      <rect x="1377" y="680" class="st5" width="3.9" height="32.2"/>
      <rect x="1410" y="680" class="st5" width="3.9" height="32.2"/>
      <rect x="1208.6" y="680" class="st5" width="3.9" height="32.2"/>
      <rect x="1200.3" y="680" class="st5" width="3.9" height="32.2"/>
      <rect x="1192.2" y="680" class="st5" width="3.9" height="32.2"/>
      <path class="st5" d="M1186.1,680.1V712c0.5,0.1,1,0.1,1.5,0.1h2.4V680h-2.4C1187.1,680,1186.6,680.1,1186.1,680.1z"/>
      <path class="st5" d="M1180.7,683.1v26c0.9,1.2,2.3,2.1,3.9,2.6v-31.2C1183,681,1181.6,681.9,1180.7,683.1z"/>
    </g>
    <g>
      <circle class="st3" cx="1594.1" cy="866.1" r="163.8"/>
      <circle class="st4" cx="1608.4" cy="866.1" r="163.8"/>
      <g>
        <path class="st5" d="M1502.9,973.6c-28.2-28.2-43.7-65.7-43.7-105.5c0-39.9,15.5-77.3,43.7-105.5s65.7-43.7,105.5-43.7 c39.9,0,77.3,15.5,105.5,43.7s43.7,65.7,43.7,105.5c0,39.9-15.5,77.3-43.7,105.5s-65.7,43.7-105.5,43.7 C1568.5,1017.3,1531.1,1001.8,1502.9,973.6z M1468.1,868.1c0,77.4,62.9,140.3,140.3,140.3s140.3-62.9,140.3-140.3 s-62.9-140.3-140.3-140.3C1531,727.7,1468.1,790.7,1468.1,868.1z"/>
      </g>
    </g>
    <g>
      <g>
        <g>
          <path class="st12" d="M1336,885.3c2.5,2.9,2.9,6.1,1.6,9.6l0,0c-2.3,6.4-10,13.6-18.9,20.7c-1.1,0.9-2.1,1.8-3,2.5 c-0.2,0.2-0.5,0.4-0.7,0.6c-0.2,0.2-0.4,0.3-0.5,0.5c-8.3,7.6-5.2,9.4-20.1,24.9c-17,17.7-28.7,18-32,16.4 c-2.8-1.4,2.9-10.8,9.2-21.3c0.3-0.5,0.6-1,0.9-1.5c0.8-1.4,1.7-2.8,2.5-4.2c7.4-12.7,5.5-18.6,3.8-37.5 c-1.4-15.3-23.9-85.7-23.9-85.7l32.6-5.6c0,0,9.8,56,20.6,64.7c5.8,4.6,12.2,4.7,17.8,8.1c0.4,0.2,0.8,0.5,1.2,0.7 C1330.3,880.3,1333.5,882.4,1336,885.3z"/>
          <path class="st7" d="M1336,885.3c2.5,2.9,2.9,6.1,1.6,9.6l0,0c-2.8,6.4-10.3,13.5-18.9,20.6c-1.1,0.9-2.1,1.8-3,2.6 c-0.2,0.2-0.5,0.4-0.7,0.6c-0.2,0.2-0.4,0.3-0.5,0.5c-8.3,7.6-5.2,9.4-20.1,24.9c-17,17.7-28.7,18-32,16.4 c-2.8-1.4,2.9-10.8,9.2-21.3c3.3-1.2,18.7-7.5,30.3-22.3c10.2-13.1,17.1-29.8,24-39.6c0.4,0.2,0.8,0.5,1.2,0.7 C1330.3,880.3,1333.5,882.4,1336,885.3z"/>
          <path class="st12" d="M1073.4,865c-2,10.1-16.3,8.4-32.4,4.5c-16-3.9-12.2,0.7-35-1.8c-22.8-2.5-29.7-11-30.4-14.4 c-0.6-3,10.6-4.1,22.7-5.5c1.5-0.2,3-0.4,4.6-0.5c13.6-1.7,23.6-10.5,36-17.7c11.7-6.8,29.2-34.7,29.2-34.7l31.3,2.5 c0,0-16.4,24.9-22.7,35.7c-3.7,6.4-3.5,14.8-3.1,21.3C1073.8,857.8,1074.1,861.4,1073.4,865z"/>
          <path class="st7" d="M1041,869.4c-16-3.9-12.2,0.7-35-1.8c-22.8-2.5-29.7-11-30.4-14.4c-0.6-3,10.6-4.1,22.7-5.5l0.1,0.2 c0,0,13.7,9.7,32.6,10.1c15.5,0.4,31.8-4.1,42.5-3.9c0.2,3.5,0.5,7.2-0.2,10.7C1071.3,875,1057,873.4,1041,869.4z"/>
          <path class="st7" d="M1193.1,665.1l29.2,78.6l38.1,102.7c0,0,10.4,1,20.3-1.9c9.1-2.6,19.6-9.5,19.6-9.5s-10.6-110.2-30.3-173.5 c-5.1-16.2-10.7-29.4-17-36.8C1222.4,588.6,1193.1,665.1,1193.1,665.1z"/>
          <path class="st6" d="M1222.8,540.3c19.1-6.2,73.7,1.8,128.6,12.5l11.5-18.9l118.5-9.3c0,0,39.1,86.7,17.7,141.9 c-3.1,8.1-9.4,13.3-20,13.5h-1.7c0,0-70.5,0-93.4,0c-58.9,0-124.7-40.5-133.2-42.2c-13.9-2.8-19.5,25.1-33.4,54.3 s-130.9,129.5-130.9,129.5s-18,0.2-25.4-2.6c-8-3-10.9-6.9-10.9-6.9S1179.7,554.2,1222.8,540.3z"/>
          <path class="st7" d="M1329.9,369.1c37.4,30.4,127.4,83,127.9,82.8c0,0,28.8,17.3,48.5,8.8c32.8-14.1,58-63.6,12.6-118.3 c-22.6-27.3-41.4-36.3-37-72.6c4.8-39.3-13-88.7-58.2-90.8c-3.8-0.2-26.7-3.2-43,1.9C1339,194.1,1269.3,349,1329.9,369.1z"/>
          <path class="st9" d="M1489.4,537.4c-2.4,6.7-66.5,12.7-102.9,10.3c-11.6-0.8-20.4-2.4-23.5-5.1c-13-11.3-11.7,13.5-13.5-105.3 c-0.9-57.9,49.2-109.6,49.2-109.6s4,24.8,53.6-4.7c1.8-1,21.3,27.9,40.1,63.5C1513.1,426,1491.9,530.5,1489.4,537.4z"/>
          <path class="st6" d="M1222.4,743.8l38.1,102.7c0,0,10.4,1,20.3-1.9c9.1-2.6,19.6-9.5,19.6-9.5s-10.6-110.2-30.3-173.5 L1222.4,743.8z"/>
          <path class="st9" d="M1398.7,327.8c0,0-45.3,11.1-57.1,30.6c-14.3,23.8-85.7,131-85.7,131s70.3,24.9,82.3,12.9 s41.7-111.2,41.7-111.2L1398.7,327.8z"/>
          <path class="st12" d="M1452.4,323.2c0.2,0-18.3,17-31.8,22c-5.3,1.9-14.1,4.1-14.1,4.1s-7.1-7.1-7.2-7.2 c-6.3-5.9,0-7.6-0.9-18.6c-0.1-0.5-0.1-1.1-0.2-1.6c-1.3-12.4-4.9-26-5.1-26.9l0,0l43.8-12.5l-1.4,2.4 C1438.3,307.4,1446.5,322.5,1452.4,323.2z"/>
          <path class="st13" d="M1437,282.3c-4.3,12.7-15.8,29.8-39.5,33.5c-2.3-13.7-4.1-20.1-4.3-20.9l0,0L1437,282.3z"/>
          <path class="st12" d="M1385.9,308c0,0,59.1-3.9,56.1-40.7s2.6-62-35.3-61.1c-37.9,1-44,15.6-46,28.1 C1358.7,246.9,1370.4,308.1,1385.9,308z"/>
          <path class="st7" d="M1375.2,205.6c0,0,14.7,43.1,49.5,48.1c25.4,3.7,35.5-3.2,35.5-3.2s-14.2-13.5-21.9-34.2 c-2.3-6.1-7.6-10.6-14.1-11.6C1406.3,201.9,1382.9,189.9,1375.2,205.6z"/>
          <path class="st7" d="M1387.8,213.2c0,0-10.5,4.3-17.9,20c-4,8.6-6.9,29.1-4.4,37.6c0,0-17-39.3-4.7-57 C1373.8,195,1387.8,213.2,1387.8,213.2z"/>
          <path class="st10" d="M1398.4,323.3c0,0,3.6,21.8,8.1,25.9c0,0-11.3-4.2-16.7-18.8C1389.8,330.4,1393.8,323.8,1398.4,323.3z"/>
          <path class="st10" d="M1356.3,397.5c0,0-33,39.6-28.9,53.9s26.9,14.3,26.9,14.3s-4.3-30.5,0-46.4 C1358.5,403.4,1361.2,396.6,1356.3,397.5z"/>
          <path class="st10" d="M1430.3,511.6c0,0,47.5-29,46.9-45.8s0-47.7,4.5-43.4c4.5,4.3,18.6,39,17.2,48.8s-49.4,78.4-55.3,78.2 C1401.3,548.3,1430.3,511.6,1430.3,511.6z"/>
          <path class="st10" d="M1443.2,313.1c0,0-26,32.6-36.7,36.1c0,0,30.5,0,52-25.5C1458.5,323.7,1451.3,313.2,1443.2,313.1z"/>
          <g>
            <circle class="st3" cx="1323.2" cy="476.3" r="120.5"/>
            <circle class="st4" cx="1312.7" cy="476.3" r="120.5"/>
            <g>
              <path class="st5" d="M1312.7,587.5c-29.3,0-56.9-11.4-77.6-32.1c-20.7-20.7-32.1-48.3-32.1-77.6s11.4-56.9,32.1-77.6 s48.3-32.1,77.6-32.1c29.3,0,56.9,11.4,77.6,32.1s32.1,48.3,32.1,77.6s-11.4,56.9-32.1,77.6 C1369.5,576,1342,587.5,1312.7,587.5z M1312.7,374.5c-56.9,0-103.2,46.3-103.2,103.2s46.3,103.2,103.2,103.2 c56.9,0,103.2-46.3,103.2-103.2C1415.9,420.8,1369.6,374.5,1312.7,374.5z"/>
            </g>
          </g>
          <path class="st12" d="M1183.8,496.8c0,0-1.3-19.8,6.1-19c9.2,1,18.9,22.7,14.5,26.9C1199.9,509,1183.9,501.7,1183.8,496.8z"/>
          <path class="st12" d="M1440,542.6l-11.2-6.7c0,0-6.9-2.8-11-2.2s-13.8-1.1-14.1,0.5c-0.3,1.6,9.3,8.6,9.3,8.6 c-5.8,8.9-26.7,10.5-28.3,13.8c-1.9,4,7.5,7.8,12.7,10c5.1,2.2,18.3,4.2,25.8-1.5c5.5-4.2,14.6-9.8,14.6-9.8L1440,542.6z"/>
          <path class="st9" d="M1452.3,323.1c0,0,46.9,3.1,58.6,21.4s49.4,122.4,43.3,154.3s-117.6,70.1-117.6,70.1s-4.9-4.3-4.9-15.7 c0-6.9,3.6-13.5,3.6-13.5s68.4-57.2,63.7-68.5C1481.5,429.2,1452.3,323.1,1452.3,323.1z"/>
        </g>
      </g>
    </g>
  </g>
  <g>
    <path class="st15" d="M678.8,144.5v13.9H635v-13.9H678.8z M645.8,126.2h18v71.6c0,2.4,0.4,4.3,1.1,5.5c0.7,1.3,1.7,2.1,3,2.6 c1.2,0.5,2.6,0.7,4.1,0.7c1.1,0,2.2-0.1,3.1-0.2c0.9-0.2,1.7-0.3,2.2-0.4l3,14c-1,0.3-2.3,0.7-4.1,1.1c-1.8,0.4-3.9,0.6-6.5,0.7 c-4.5,0.1-8.6-0.6-12.2-2.1c-3.6-1.5-6.5-3.8-8.6-7s-3.1-7.1-3.1-11.9V126.2z"/>
    <path class="st15" d="M702.9,133.7c-2.9,0-5.3-1-7.4-2.9c-2-1.9-3.1-4.2-3.1-6.9c0-2.7,1-5,3.1-6.9s4.5-2.9,7.3-2.9s5.3,1,7.3,2.9 s3.1,4.2,3.1,6.9c0,2.7-1,5-3.1,6.9C708.2,132.7,705.8,133.7,702.9,133.7z M693.9,220.8v-76.3h18v76.3H693.9z"/>
    <path class="st15" d="M730.3,249.4V144.5H748v12.6h1c0.9-1.9,2.2-3.8,3.9-5.9c1.7-2.1,4-3.9,6.9-5.4s6.6-2.3,11-2.3 c5.9,0,11.2,1.5,16,4.5c4.7,3,8.5,7.4,11.3,13.3c2.8,5.8,4.2,13,4.2,21.5c0,8.4-1.4,15.5-4.1,21.3c-2.7,5.9-6.5,10.3-11.2,13.4 c-4.7,3.1-10.1,4.6-16.1,4.6c-4.4,0-8-0.7-10.9-2.2s-5.2-3.2-6.9-5.3s-3.1-4-4-5.9h-0.7v40.6L730.3,249.4L730.3,249.4z M747.9,182.6c0,4.9,0.7,9.3,2.1,13c1.4,3.7,3.4,6.6,6.1,8.7c2.7,2.1,5.9,3.1,9.7,3.1c4,0,7.3-1.1,10-3.2c2.7-2.1,4.7-5.1,6.1-8.8 c1.4-3.7,2.1-8,2.1-12.7s-0.7-8.9-2-12.6c-1.4-3.7-3.4-6.6-6.1-8.6c-2.7-2.1-6-3.1-10-3.1c-3.8,0-7.1,1-9.8,3s-4.7,4.8-6.1,8.5 C748.6,173.4,747.9,177.7,747.9,182.6z"/>
    <path class="st15" d="M850.9,222.3c-7.4,0-13.9-1.6-19.4-4.9c-5.5-3.3-9.7-7.9-12.7-13.8c-3-5.9-4.5-12.8-4.5-20.7 s1.5-14.8,4.5-20.7s7.2-10.5,12.7-13.8s11.9-4.9,19.4-4.9c7.4,0,13.9,1.6,19.4,4.9c5.5,3.3,9.7,7.9,12.7,13.8 c3,5.9,4.5,12.8,4.5,20.7s-1.5,14.8-4.5,20.7s-7.2,10.5-12.7,13.8S858.3,222.3,850.9,222.3z M851,207.9c4,0,7.4-1.1,10.1-3.4 c2.7-2.2,4.7-5.2,6.1-9c1.3-3.8,2-8,2-12.6c0-4.7-0.7-8.9-2-12.7s-3.4-6.8-6.1-9.1c-2.7-2.3-6.1-3.4-10.1-3.4 c-4.1,0-7.6,1.1-10.3,3.4c-2.7,2.3-4.8,5.3-6.1,9.1s-2,8-2,12.7c0,4.6,0.7,8.8,2,12.6s3.4,6.8,6.1,9 C843.4,206.7,846.9,207.9,851,207.9z"/>
    <path class="st15" d="M920.6,176.1v44.7h-18v-76.3h17.2v13h0.9c1.8-4.3,4.6-7.7,8.4-10.2c3.9-2.5,8.6-3.8,14.3-3.8 c5.3,0,9.9,1.1,13.8,3.4c3.9,2.3,7,5.5,9.1,9.8c2.2,4.3,3.2,9.4,3.2,15.5v48.6h-18V175c0-5.1-1.3-9.1-3.9-12 c-2.6-2.9-6.3-4.3-10.9-4.3c-3.1,0-5.9,0.7-8.4,2.1c-2.4,1.4-4.3,3.4-5.7,5.9C921.3,169.3,920.6,172.4,920.6,176.1z"/>
    <path class="st15" d="M1005.8,119.1v101.7h-18V119.1H1005.8z"/>
    <path class="st15" d="M1033.3,133.7c-2.9,0-5.3-1-7.4-2.9c-2-1.9-3.1-4.2-3.1-6.9c0-2.7,1-5,3.1-6.9s4.5-2.9,7.3-2.9s5.3,1,7.3,2.9 s3.1,4.2,3.1,6.9c0,2.7-1,5-3.1,6.9C1038.6,132.7,1036.2,133.7,1033.3,133.7z M1024.3,220.8v-76.3h18v76.3H1024.3z"/>
    <path class="st15" d="M1078.7,176.1v44.7h-18v-76.3h17.2v13h0.9c1.8-4.3,4.6-7.7,8.4-10.2c3.9-2.5,8.6-3.8,14.3-3.8 c5.3,0,9.9,1.1,13.8,3.4c3.9,2.3,7,5.5,9.1,9.8c2.2,4.3,3.2,9.4,3.2,15.5v48.6h-18V175c0-5.1-1.3-9.1-3.9-12s-6.3-4.3-10.9-4.3 c-3.1,0-5.9,0.7-8.4,2.1c-2.4,1.4-4.3,3.4-5.7,5.9C1079.4,169.3,1078.7,172.4,1078.7,176.1z"/>
    <path class="st15" d="M1179.7,222.3c-7.6,0-14.2-1.6-19.8-4.8c-5.5-3.2-9.8-7.7-12.8-13.6c-3-5.9-4.5-12.8-4.5-20.8 c0-7.8,1.5-14.7,4.5-20.7c3-5.9,7.2-10.6,12.6-13.9c5.4-3.3,11.7-5,19-5c4.7,0,9.1,0.8,13.3,2.3c4.2,1.5,7.9,3.8,11.1,7 c3.2,3.1,5.8,7.1,7.6,12c1.9,4.8,2.8,10.6,2.8,17.3v5.5H1151v-12.1h45.3c0-3.4-0.8-6.5-2.2-9.2c-1.5-2.7-3.5-4.8-6.1-6.4 c-2.6-1.6-5.6-2.3-9.1-2.3c-3.7,0-6.9,0.9-9.7,2.7c-2.8,1.8-4.9,4.1-6.5,7c-1.5,2.9-2.3,6-2.4,9.4v10.6c0,4.4,0.8,8.2,2.4,11.4 s3.9,5.6,6.8,7.2c2.9,1.7,6.3,2.5,10.2,2.5c2.6,0,5-0.4,7.1-1.1c2.1-0.7,4-1.8,5.5-3.3c1.6-1.5,2.7-3.3,3.5-5.4l16.8,1.9 c-1.1,4.4-3.1,8.3-6,11.6c-3,3.3-6.7,5.8-11.3,7.6C1190.9,221.4,1185.7,222.3,1179.7,222.3z"/>
  </g>
</svg>