<?xml version="1.0" encoding="utf-8"?>
<!-- Generator: Adobe Illustrator 19.2.1, SVG Export Plug-In . SVG Version: 6.00 Build 0)  -->
<svg version="1.1" id="_x2018_лой_x5F_1" xmlns="http://www.w3.org/2000/svg" xmlns:xlink="http://www.w3.org/1999/xlink"
	 x="0px" y="0px" viewBox="0 0 1201 1213.8" style="enable-background:new 0 0 1201 1213.8;" xml:space="preserve">
<style type="text/css">
	.st0{fill:#3B97F4;}
	.st1{fill:#6AB1F9;}
	.st2{fill:#FFFFFF;}
	.st3{fill:#FFB27D;}
	.st4{fill:#233862;}
	.st5{fill:#2D4C7F;}
	.st6{fill:#ED975D;}
	.st7{fill:#2B478B;}
	.st8{fill:#163560;}
	.st9{fill:#23569E;}
	.st10{fill:#294A7F;}
	.st11{fill:#6385DB;}
	.st12{fill:#E8945B;}
</style>
<g>
	<g>
		<path class="st0" d="M833.5,721.2H331.3c-19.7,0-35.6-15.9-35.6-35.6V40c0-19.7,15.9-35.6,35.6-35.6h502.1
			C853.1,4.4,869,20.3,869,40v645.7C869.1,705.3,853.1,721.2,833.5,721.2z"/>
		<path class="st1" d="M869.1,108.9H295.7V41.7c0-20.9,17.1-38,38-38h497.4c20.9,0,38,17.1,38,38V108.9z"/>
		<g>
			<path class="st2" d="M458.6,33.2v43.6h-7.9V33.2H458.6z"/>
			<path class="st2" d="M474.6,57.7v19.2h-7.7V44.1h7.4v5.6h0.4c0.8-1.8,2-3.3,3.6-4.4c1.7-1.1,3.7-1.6,6.1-1.6
				c2.3,0,4.2,0.5,5.9,1.4c1.7,1,3,2.4,3.9,4.2s1.4,4.1,1.4,6.7v20.8h-7.7V57.2c0-2.2-0.6-3.9-1.7-5.1c-1.1-1.2-2.7-1.9-4.7-1.9
				c-1.4,0-2.5,0.3-3.6,0.9c-1,0.6-1.9,1.4-2.5,2.5C474.9,54.8,474.6,56.1,474.6,57.7z"/>
			<path class="st2" d="M515.6,77.4c-2.6,0-4.9-0.7-6.9-2s-3.6-3.2-4.8-5.8c-1.2-2.5-1.8-5.6-1.8-9.2c0-3.6,0.6-6.7,1.8-9.2
				c1.2-2.5,2.8-4.4,4.9-5.7c2-1.3,4.3-1.9,6.8-1.9c1.9,0,3.5,0.3,4.7,1c1.2,0.6,2.2,1.4,2.9,2.3c0.7,0.9,1.3,1.8,1.7,2.5h0.3V33.2
				h7.7v43.6h-7.6v-5.1h-0.5c-0.4,0.8-1,1.6-1.7,2.5c-0.8,0.9-1.7,1.6-3,2.3C519,77.1,517.5,77.4,515.6,77.4z M517.7,71.1
				c1.6,0,3-0.4,4.2-1.3s2-2.1,2.6-3.7s0.9-3.4,0.9-5.6c0-2.1-0.3-4-0.9-5.5c-0.6-1.6-1.5-2.8-2.6-3.6c-1.1-0.9-2.5-1.3-4.2-1.3
				s-3.2,0.4-4.3,1.3c-1.2,0.9-2,2.1-2.6,3.7s-0.9,3.4-0.9,5.4c0,2,0.3,3.9,0.9,5.5s1.5,2.9,2.6,3.8C514.6,70.7,516,71.1,517.7,71.1
				z"/>
			<path class="st2" d="M545.1,39.5c-1.2,0-2.3-0.4-3.2-1.2s-1.3-1.8-1.3-3s0.4-2.2,1.3-3s1.9-1.2,3.2-1.2s2.3,0.4,3.1,1.2
				c0.9,0.8,1.3,1.8,1.3,3s-0.4,2.1-1.3,3C547.4,39.1,546.4,39.5,545.1,39.5z M541.3,76.9V44.1h7.7v32.7L541.3,76.9L541.3,76.9z"/>
			<path class="st2" d="M586.1,44.1l-11.7,32.7h-8.5l-11.7-32.7h8.2l7.5,24.3h0.3l7.5-24.3C577.7,44.1,586.1,44.1,586.1,44.1z"/>
			<path class="st2" d="M595.3,39.5c-1.2,0-2.3-0.4-3.2-1.2s-1.3-1.8-1.3-3s0.4-2.2,1.3-3s1.9-1.2,3.2-1.2s2.3,0.4,3.1,1.2
				c0.9,0.8,1.3,1.8,1.3,3s-0.4,2.1-1.3,3C597.6,39.1,596.5,39.5,595.3,39.5z M591.4,76.9V44.1h7.7v32.7L591.4,76.9L591.4,76.9z"/>
			<path class="st2" d="M619.2,77.4c-2.6,0-4.9-0.7-6.9-2s-3.6-3.2-4.8-5.8c-1.2-2.5-1.8-5.6-1.8-9.2c0-3.6,0.6-6.7,1.8-9.2
				c1.2-2.5,2.8-4.4,4.9-5.7c2-1.3,4.3-1.9,6.8-1.9c1.9,0,3.5,0.3,4.7,1c1.2,0.6,2.2,1.4,2.9,2.3c0.7,0.9,1.3,1.8,1.7,2.5h0.3V33.2
				h7.7v43.6h-7.6v-5.1h-0.5c-0.4,0.8-1,1.6-1.7,2.5c-0.8,0.9-1.7,1.6-3,2.3C622.7,77.1,621.1,77.4,619.2,77.4z M621.4,71.1
				c1.6,0,3-0.4,4.2-1.3s2-2.1,2.6-3.7s0.9-3.4,0.9-5.6c0-2.1-0.3-4-0.9-5.5c-0.6-1.6-1.5-2.8-2.6-3.6c-1.1-0.9-2.5-1.3-4.2-1.3
				s-3.2,0.4-4.3,1.3c-1.2,0.9-2,2.1-2.6,3.7s-0.9,3.4-0.9,5.4c0,2,0.3,3.9,0.9,5.5s1.5,2.9,2.6,3.8
				C618.3,70.7,619.7,71.1,621.4,71.1z"/>
			<path class="st2" d="M665.8,63.1v-19h7.7v32.7H666V71h-0.3c-0.7,1.8-1.9,3.3-3.6,4.5s-3.8,1.7-6.2,1.7c-2.1,0-4-0.5-5.7-1.4
				c-1.6-1-2.9-2.4-3.8-4.2c-0.9-1.8-1.4-4.1-1.4-6.7V44.1h7.7v19.6c0,2.1,0.6,3.7,1.7,4.9s2.6,1.8,4.5,1.8c1.1,0,2.2-0.3,3.3-0.8
				c1.1-0.6,1.9-1.4,2.6-2.5C665.4,66.1,665.8,64.8,665.8,63.1z"/>
			<path class="st2" d="M690.8,77.5c-2.1,0-3.9-0.4-5.6-1.1s-3-1.9-3.9-3.3c-1-1.5-1.4-3.3-1.4-5.4c0-1.8,0.3-3.4,1-4.6
				s1.6-2.2,2.8-2.9c1.2-0.7,2.5-1.3,4-1.7s3-0.6,4.6-0.8c1.9-0.2,3.5-0.4,4.7-0.5c1.2-0.2,2.1-0.4,2.6-0.8s0.8-0.9,0.8-1.6v-0.1
				c0-1.6-0.5-2.8-1.4-3.7c-1-0.9-2.3-1.3-4.1-1.3c-1.9,0-3.4,0.4-4.5,1.2s-1.8,1.8-2.2,2.9l-7.2-1c0.6-2,1.5-3.7,2.8-5
				s2.9-2.4,4.8-3c1.9-0.7,4-1,6.3-1c1.6,0,3.1,0.2,4.7,0.6c1.6,0.4,3,1,4.3,1.8s2.3,2,3.1,3.4c0.8,1.4,1.2,3.3,1.2,5.4v21.9h-7.4
				v-4.5h-0.3c-0.5,0.9-1.1,1.8-2,2.5c-0.8,0.8-1.9,1.4-3.2,1.9C694,77.3,692.5,77.5,690.8,77.5z M692.8,71.9c1.5,0,2.9-0.3,4-0.9
				s2-1.4,2.6-2.5c0.6-1,0.9-2.1,0.9-3.3v-3.9c-0.2,0.2-0.6,0.4-1.2,0.6s-1.2,0.3-1.9,0.4c-0.7,0.1-1.4,0.2-2.1,0.3
				c-0.7,0.1-1.3,0.2-1.8,0.3c-1.2,0.2-2.2,0.4-3.1,0.8s-1.6,0.8-2.2,1.5c-0.5,0.6-0.8,1.4-0.8,2.4c0,1.4,0.5,2.5,1.6,3.2
				C689.9,71.5,691.2,71.9,692.8,71.9z"/>
			<path class="st2" d="M723.6,33.2v43.6h-7.7V33.2H723.6z"/>
		</g>
		<path class="st2" d="M686.2,172.9H484.8c-2.1,0-3.8-1.7-3.8-3.8v-2.4c0-2.1,1.7-3.8,3.8-3.8h201.4c2.1,0,3.8,1.7,3.8,3.8v2.4
			C690,171.2,688.3,172.9,686.2,172.9z"/>
		<path class="st2" d="M684.5,211.2H483.1c-2.1,0-3.8-1.7-3.8-3.8V205c0-2.1,1.7-3.8,3.8-3.8h201.4c2.1,0,3.8,1.7,3.8,3.8v2.4
			C688.3,209.5,686.6,211.2,684.5,211.2z"/>
		<path class="st2" d="M780,272.2H381.3c-2.8,0-5-2.3-5-5l0,0c0-2.7,2.3-5,5-5H780c2.8,0,5,2.3,5,5l0,0
			C785,270,782.7,272.2,780,272.2z"/>
		<path class="st2" d="M730.9,352.2H441.1c-2.3,0-4.3-1.9-4.3-4.3v-1.5c0-2.3,1.9-4.3,4.3-4.3h289.8c2.3,0,4.3,1.9,4.3,4.3v1.5
			C735.1,350.3,733.2,352.2,730.9,352.2z"/>
		<path class="st2" d="M730.9,413.2H441.1c-2.3,0-4.3-1.9-4.3-4.3v-1.5c0-2.3,1.9-4.3,4.3-4.3h289.8c2.3,0,4.3,1.9,4.3,4.3v1.5
			C735.1,411.3,733.2,413.2,730.9,413.2z"/>
		<path class="st2" d="M730.9,476.2H441.1c-2.3,0-4.3-1.9-4.3-4.3v-1.5c0-2.3,1.9-4.3,4.3-4.3h289.8c2.3,0,4.3,1.9,4.3,4.3v1.5
			C735.1,474.3,733.2,476.2,730.9,476.2z"/>
		<path class="st2" d="M730.9,541.2H441.1c-2.3,0-4.3-1.9-4.3-4.3v-1.5c0-2.3,1.9-4.3,4.3-4.3h289.8c2.3,0,4.3,1.9,4.3,4.3v1.5
			C735.1,539.3,733.2,541.2,730.9,541.2z"/>
		<path class="st2" d="M663.5,659.2h-174c-13.2,0-24-10.8-24-24l0,0c0-13.2,10.8-24,24-24h174c13.2,0,24,10.8,24,24l0,0
			C687.5,648.4,676.7,659.2,663.5,659.2z"/>
	</g>
	<g>
		<g id="man_3_">
			<g>
				<path class="st3" d="M811.8,486.6c3.6,10.2,10,22,16.8,25c7.7,3.4,10.9,8.1,10.9,8.1l6.3-3.5l7.5-4.3c0,0-0.2-0.9-0.5-2.1
					c-0.3-1.4-0.9-3.2-1.6-5.4c0,0-2.3-3-0.9-6.6c1.5-3.6,1.3-9.4-1.1-13s-4.6-12.1-6-11.9c-3.5,0.5,1.6,12.4,0,14.6
					c-1.4,1.9-3.1,1.3-3.3,1.1c0,0,0,0-0.1,0c-9.8-4.4-21.3-27.9-26.7-24.8C811.2,464.9,810.3,482.2,811.8,486.6z"/>
			</g>
			<g>
				<path class="st4" d="M1022.8,438.9c0,0-64,108.4-86.9,128.2L853.3,504c0,0-12.1,3.5-17.6,15.6c0,0,62.7,103.9,99,108.6
					c49.5,6.4,121.2-122,121.2-122L1022.8,438.9z"/>
			</g>
			<g>
				<g>
					<path class="st5" d="M1130.4,1184.7l36.1,0.4c4.6-2.5,8.7-8,10.1-16.4c1.9-11.6,15-17.8,18-27.3c2.9-9.5-11.4-23-11.4-23
						l-2.4-3.1l-2.5-3.3l-24.1,5.4c0,0-0.6,5.7-1.1,13c-0.3,5.3-0.5,11.4-0.3,16.6c0.5,12.8-3.9,26.4-15.2,28.7
						C1129.4,1177.3,1129.7,1182.2,1130.4,1184.7z"/>
				</g>
				<g>
					<path class="st5" d="M945.3,1180.5l82.7,1.1c4.1-4.8,2.8-22.7,2.3-28.6c-0.1-1.2-0.2-1.8-0.2-1.8s-28-22.9-32-5.7
						c-0.1,0.5-0.3,1.1-0.4,1.6c-5,16.1-27.1,23.2-39.8,25.1C949.6,1173.3,946.5,1177.6,945.3,1180.5z"/>
				</g>
				<g>
					<g>
						<path class="st0" d="M966.8,719.2c0,0,3.6,53.6,7.8,117.9c5.8,87.5,12.6,194.8,13.2,215.2c1,35.4,5.9,91.9,5.9,91.9
							s13.2,13.6,40.1,8.3c0,0,24.9-80.3,32.8-165.5c0.1-1.4,0.2-2.8,0.3-4.2c7.4-86.7,19.6-269.4,19.6-269.4L966.8,719.2z"/>
					</g>
				</g>
				<g>
					<g>
						<path class="st0" d="M966.8,719.2c0,0,3.6,53.6,7.8,117.9l92.1,149.8c0.1-1.4,0.2-2.8,0.3-4.2c7.4-86.7,19.6-269.4,19.6-269.4
							L966.8,719.2z"/>
					</g>
				</g>
				<g>
					<g>
						<path class="st0" d="M987.8,710.7c0,0,62.4,198.5,105.9,292.7c43.5,94.2,57.3,120.7,57.3,120.7s29.3-9.6,32.5-17.4
							c0,0-13.4-164.6-43.8-209.6c-17.1-25.4-27.9-111.5-27.1-137c0.8-25.4-1.5-76-1.5-76L987.8,710.7z"/>
					</g>
				</g>
			</g>
			<g>
				<path class="st3" d="M1009.1,443.5c30.1,9.9,82.6-15.1,82.6-15.1s-27.5-21.2-25.6-64.7l-23.6,18.5l-16,12.5c0,0,0,7.5,1.5,20.8
					v0.1c0.8,6.6-1.9,13.2-7.3,17.1C1013.2,438.3,1009.1,443.5,1009.1,443.5z"/>
			</g>
			<g>
				<path class="st6" d="M1026.5,394.8c0,0,0,7.5,1.5,20.8c17.6-2.8,37.9-31,37.9-31c-8.9-2.7-16.7-3.2-23.5-2.4L1026.5,394.8z"/>
			</g>
			<g>
				<path class="st3" d="M1017.3,394c0,0,49.7,8.9,54.9-22.2c5-31.1,14.9-50.9-16.6-57.9c-31.6-7-39.7,3.9-43.9,13.8
					C1007.4,337.8,1004.5,390.9,1017.3,394z"/>
			</g>
			<g>
				<path class="st7" d="M963.4,723.6c0.9,0.8,1.9,1.3,3.1,1.3c11.4,0,44.4,6.8,72.3,4.2c23.6-1.9,44.6-8.7,67.1-18.4
					c3-1.3,9.9-4.8,9.8-8.3c-0.1-3.6-0.3-8.9-0.8-15.6c-1.3-23.2-3.5-63-0.3-108.9c0.6-8.6,1-17,1.1-25.4
					c1-62.3-10.6-117.1-35.3-136c-2.1-1.5-15.2,4.6-27.2,10.4c-11.1,5.4-19.6,5.8-30,3.5l-13.1,9.1c-12.9,11.7-27,27.5-33.3,51.8
					c-5.4,20.7-8.9,58-11,96.7c-1,17.6-1.8,35.3-2.1,52v0.6c-0.2,1.7-0.2,3.4-0.2,5.1C962.4,688.8,962.7,723,963.4,723.6z"/>
			</g>
			<g>
				<path class="st4" d="M1115.2,686.7c-1.3-23.2-3.5-63-0.3-108.9c0.6-8.6,1-17,1.1-25.4c-10-25.2-18.2-43.5-18.2-43.5l-26-0.3
					C1071.7,508.6,1050.9,638.8,1115.2,686.7z"/>
			</g>
			<g>
				<path class="st7" d="M1072.2,368.8c0,0-5.1-1-4.2-7.9c1-7.1,1.1-16.3-4.7-14.6c-5.8,1.6-6.1,6.2-8.5,3.5s-2.3-14-19.3-15
					c-17-1-24,4.8-31.9,1.3s-8.1-15.6-8.1-15.6s2.3,4.3,5.6,5.7c0,0-13-18.2,2.5-30.4c15.4-12.2,31-3.9,39.9-3.2
					c19.5,1.4,32.2,2.8,38.4,15.6C1088.1,321,1084.9,356.6,1072.2,368.8z"/>
			</g>
			<g>
				<path class="st3" d="M1168.1,677.5c0,0,3,23.9,3.2,27c1.3,21.1-1.7,23,9.8,26.9c3.2,1.1,11.8,1.2,16.8-4.8c0,0-8-0.6-6.5-12.1
					c1.7-13.3,0.9-9.5-7.1-20.5l-1.6-20L1168.1,677.5z"/>
			</g>
			<g>
				<path class="st7" d="M1178.7,698c-9.4,1.7-19.5,0.9-19.5,0.9s-26.8-86.4-30.2-94.2c-3.5-7.9-81.5-101.9-81.5-101.9l34-82.1
					c0,0,83.8,144,92.2,164.2c13.9,33.3,18,107.8,18,107.8S1186.1,696.6,1178.7,698z"/>
			</g>
			<g>
				<path class="st3" d="M1171.3,704.6c0,0-2,5.3-2.1,7.7c-0.3,7.9-2.6,11.6-1.2,12.2c2.9,1.5,5.9-4.6,7.1-10
					C1176.3,709.2,1171.3,704.6,1171.3,704.6z"/>
			</g>
		</g>
	</g>
	<g>
		<path class="st8" d="M108.3,518.3c-3.3-6.3,71.8-29.2,73,33.4c0,0,140.7-3.5,73.5-81.9c-23.3-27.1-20.9-49.6-20.2-70.5
			s-14.5-81.6-66.5-75.5c0,0-13.6-5.5-30.7,3.3C98.7,347.3,12,541.4,108.3,518.3z"/>
		<path class="st3" d="M338.2,578.3c0,0,9.2-13.9,16.5-14.2c7.4-0.3,21-4.1,20-1.4c-1.1,2.7-9.6,3-10.4,4.6s12.6,4.1,16.4,4.4
			c3.8,0.3,12.8,0,12.6,1.9c-0.3,1.9-16.3,9.8-27.5,8.7c-11.3-1.1-25.2,3.3-25.2,3.3L338.2,578.3z"/>
		<path class="st9" d="M205.8,582.9c0,0,5,9.9,14,21.2c10.9,13.6,27.7,29.4,48.7,32.5c10.1,1.5,19.9-0.7,28.9-4.7l0,0
			c25.6-11.4,44.8-37.5,44.8-37.5c4.5-12.3-2.9-20.6-2.9-20.6s-51.7,11.6-56.6,9.2c-4.9-2.5-33.6-85.1-40.4-95.5
			c-6.8-10.4-30.1-15.8-30.1-15.8L205.8,582.9z"/>
		<path class="st8" d="M219.8,604c10.9,13.6,27.7,29.4,48.7,32.5c10.1,1.5,19.9-0.7,28.9-4.7c-1,0.1-26.5,3.3-36.7-14.9
			c-10.4-18.6-21.6-48.1-37.1-38.3C217,582.9,217.3,593.4,219.8,604z"/>
		<path class="st10" d="M13.1,1140.4c0,0-15.8,14.4-12.7,24.6s17.3,17,19.2,29.5c1.9,12.5,9.6,19.3,16.5,19.3s33,0,33,0
			s5.1-8.8-7.2-11.4s-16.9-17.3-16.2-31c0.8-13.6-1.2-31.8-1.2-31.8l-26.1-6.1L13.1,1140.4z"/>
		<path class="st10" d="M146.5,1146.6c0,0-5.7,60.9,1.2,64.3l88.6-0.2c0,0,0-10.2-14.2-12.5s-39.2-10.6-43.4-29.1
			C174.4,1150.5,146.5,1146.6,146.5,1146.6z"/>
		<path class="st9" d="M78.4,541.8c0,0-1.3,18.6,0,40.9c0.9,14.8,15.8,34.6,18,39.5c5.3,12.3,11.3,14.3,11.3,14.3l46.5,11.4l16.3,4
			l51.6-15.4c0,0,23.5-65.5,14.1-102.4s-23.8-62.5-23.8-62.5s-39.6-8.2-96.8-3.5L78.4,541.8z"/>
		<path class="st8" d="M218.8,646.5c0,0,25.5,79.5,27.2,106.5c1.6,27.1-48.8,384.4-50.8,396.8c-1.9,11.8-16.5,19.2-16.5,19.2
			s-6.7,4-16.3,1.3c-13.3-3.8-17.5-8.2-17.5-8.2s-19.9-254.8-7.6-345.9c12.3-91,12.4-169.8,12.4-169.8L218.8,646.5L218.8,646.5z"/>
		<path class="st8" d="M110.6,644.1c0,0-38.9,52.3-42.6,87.6c-3.6,35.3-5.7,159.4-13.4,193.8c-7.7,34.4-36.2,100.7-36.2,208.1
			c0,0,3,6.2,12.1,9.4c2.9,1,6.8,2.1,10.6,2.9c7.5,1.7,15.2-2,18.7-8.9c19.2-38.7,80.4-163.5,83.6-189.4
			c2.2-18.3,21.5-139.6,63.7-210.8c10.1-17.1-6.2-85-6.2-85L110.6,644.1z"/>
		<path class="st4" d="M222.9,634.2c0,0-10.3,8.1-30.6,8.5c-24.3,0.5-84.6-6.2-84.6-6.2s-2.7,7.5-2.6,15.4c0,0,73.6,18.6,116.3,2.7
			C221.4,654.6,226.9,644.3,222.9,634.2z"/>
		<g>
			<path class="st2" d="M187,651.1c0-6.9,5-12.6,11.1-12.6s11.1,5.6,11.1,12.6c0,6.9-5,12.6-11.1,12.6S187,658,187,651.1z
				 M190.7,651.1c0,4.9,3.3,8.9,7.4,8.9c4.1,0,7.4-4,7.4-8.9s-3.3-8.9-7.4-8.9S190.7,646.2,190.7,651.1z"/>
		</g>
		
			<rect x="42.7" y="579.7" transform="matrix(0.6567 -0.7542 0.7542 0.6567 -436.7593 300.0051)" class="st11" width="136.9" height="100"/>
		<path class="st3" d="M124.7,648.8c0,0,27.6,3.2,27.5,9.8s-6.9,20-10.3,20.6c-3.4,0.6-22.5-18.2-22.5-18.2L124.7,648.8z"/>
		<path class="st9" d="M115.5,468.1c0,0-36.9,2.6-51,37s-41,92.1-41,101.8s15,39.6,95.5,56.8c0,0,8.3-8.8,7.8-15.7
			c0,0-50.2-43.2-50.1-48.2c0.3-9.5,8.2-22.1,52.3-66.3C141,521.5,115.5,468.1,115.5,468.1z"/>
		<path class="st3" d="M139.1,472.1c3.1-8.7,7-31.4,7-47.5l2.3,0.5l39.3,7.8c0,0-0.9,12.4-0.9,24c0,0.1,0,0.2,0,0.3
			c0,10.1,0,18.2-1,21C182,487.8,136.5,479.3,139.1,472.1z"/>
		<path class="st12" d="M187.7,432.8c0,0-0.9,12.4-0.9,24c-22-0.6-33.6-20.7-38.3-31.8L187.7,432.8z"/>
		<path class="st3" d="M195,443.8c0,0-52,0.9-52-31.5s-6.8-54.1,26.4-56s39.6,10.4,42.3,21.2C214.3,388.4,208.5,442.8,195,443.8z"/>
		<path class="st8" d="M193.1,355.6c0,0-14.2,38-36.1,43.6c-21.8,5.6-31.3-0.2-31.3-0.2s16.7-13.3,20.2-36.5
			C145.9,362.4,182.3,337.5,193.1,355.6z"/>
		<path class="st8" d="M189.5,358.6c0,0,10.6,3.9,14.9,11.6c4.2,7.5,7.9,17.5,7,29.7c0,0,10.7-25.8-1.3-40.4
			C197.4,344.1,189.5,358.6,189.5,358.6z"/>
		<path class="st2" d="M184.8,424.6c0,0,0.9,3.8,10.4,3.2c0,0,8-0.5,7.7-4.7C203,423.2,195.2,420.2,184.8,424.6z"/>
	</g>
</g>
</svg>
